<svg width="245" height="26" viewBox="0 0 245 26" fill="none" xmlns="http://www.w3.org/2000/svg">
<path d="M33.3008 8.66754V8.84091H32.4686C32.4917 8.9565 32.5033 9.07208 32.5033 9.18767C32.5033 9.30325 32.5033 9.41884 32.5033 9.53442H26.435C26.435 9.83495 26.2848 10.0661 25.9843 10.2279C25.8456 10.2742 25.7415 10.2973 25.6722 10.2973H18.5984C18.5059 10.2973 18.4134 10.2973 18.321 10.2973C18.2285 10.2742 18.136 10.2511 18.0436 10.2279H12.3915V10.4013H15.4429C15.4198 10.5169 15.4082 10.6325 15.4082 10.7481C15.4082 10.8637 15.4082 10.9792 15.4082 11.0948H14.1946C14.1715 11.1411 14.1599 11.1988 14.1599 11.2682C14.1599 11.3375 14.1599 11.3953 14.1599 11.4416H14.2639V11.7883H13.7438V12.4818H15.4082V12.6552H9.79081V13.002H11.5593V13.6955H15.1308V13.8689H13.6745V14.0422H12.7382V14.7357H15.4082C15.4314 14.8282 15.4429 14.9207 15.4429 15.0132C15.4429 15.0825 15.4429 15.1634 15.4429 15.2559H16.4138V15.4293H11.9407V15.776H10.9351V15.9494H15.4429V15.9841H22.378C22.8172 15.9841 23.0715 16.2037 23.1409 16.6429H28.2728V17.163H28.0301L27.9608 17.8565H27.5793L27.5447 18.2033H28.4462C28.4462 18.2726 28.4347 18.3304 28.4116 18.3767H28.2035C28.1804 18.4229 28.1688 18.4807 28.1688 18.5501H29.3131L29.2091 19.0702H28.1341C28.1341 19.0933 28.1226 19.1164 28.0995 19.1395C28.0995 19.1627 28.0995 19.1973 28.0995 19.2436H27.8221C27.7989 19.336 27.7643 19.4285 27.718 19.521C27.6949 19.5903 27.6718 19.6712 27.6487 19.7637H28.0648C28.0648 19.7868 28.0417 19.8446 27.9954 19.9371H27.3019C27.2557 20.0527 27.1979 20.1682 27.1286 20.2838C27.0823 20.3994 27.0245 20.515 26.9552 20.6306H27.6487L27.3366 21.1507H27.6487L27.3019 21.6708H27.0939C27.0014 21.7864 26.8974 21.902 26.7818 22.0176C26.6893 22.1332 26.5853 22.2488 26.4697 22.3644H26.1923C26.1692 22.3875 26.1461 22.4106 26.123 22.4337C26.0998 22.4568 26.0652 22.4915 26.0189 22.5377H24.5279L24.3545 22.7111H31.3243C31.1856 22.8267 31.0469 22.9423 30.9082 23.0579C30.7695 23.1735 30.6192 23.289 30.4574 23.4046H30.076C29.8448 23.5664 29.5674 23.7398 29.2438 23.9248H21.9272C21.6961 24.0635 21.4533 24.1906 21.199 24.3062C20.9448 24.3987 20.6905 24.5027 20.4362 24.6183H26.1576C26.0883 24.6414 26.0074 24.6645 25.9149 24.6876C25.8456 24.7107 25.7647 24.7454 25.6722 24.7916H24.2852C24.1927 24.8148 24.1002 24.8379 24.0078 24.861C23.9153 24.8841 23.8228 24.9188 23.7304 24.965H21.2337C20.4015 25.1962 19.5462 25.3696 18.6677 25.4852H19.2225C18.8527 25.5314 18.4712 25.5661 18.0783 25.5892C17.6853 25.6123 17.2923 25.6239 16.8993 25.6239C16.4601 25.6239 16.0324 25.6123 15.6163 25.5892C15.2233 25.5661 14.8303 25.5314 14.4373 25.4852H13.8825C12.9578 25.3696 12.1025 25.1962 11.3165 24.965H13.8132C13.7207 24.9188 13.6282 24.8841 13.5358 24.861C13.4664 24.8379 13.3855 24.8148 13.293 24.7916H14.7147L14.2293 24.6183H8.50781C8.27664 24.5027 8.03392 24.3987 7.77963 24.3062C7.54846 24.1906 7.31729 24.0635 7.08612 23.9248H14.4373C14.2986 23.8323 14.1599 23.7514 14.0212 23.682C13.8825 23.5896 13.7554 23.4971 13.6398 23.4046H14.0212C13.7438 23.1966 13.478 22.9654 13.2237 22.7111H6.21923C6.19611 22.6649 6.173 22.6302 6.14988 22.6071C6.12676 22.584 6.09209 22.5609 6.04585 22.5377H7.57158C7.54846 22.4915 7.51378 22.4568 7.46755 22.4337C7.44443 22.4106 7.42132 22.3875 7.3982 22.3644H7.6756C7.46755 22.1332 7.27106 21.902 7.08612 21.6708H7.29417L6.98209 21.1507H6.67001L6.35793 20.6306H5.66442L5.35234 19.9371H6.08053L6.01118 19.7637H5.5604C5.53728 19.6712 5.51416 19.5903 5.49105 19.521C5.46793 19.4285 5.43325 19.336 5.38702 19.2436H5.66442L5.59507 19.0702H6.67001C6.6469 18.9777 6.62378 18.8968 6.60066 18.8275C6.57755 18.735 6.55443 18.6425 6.53131 18.5501H5.9765C5.95339 18.5038 5.94183 18.446 5.94183 18.3767H5.35234C5.32923 18.3304 5.31767 18.2726 5.31767 18.2033H5.35234C5.35234 18.1108 5.32923 17.9952 5.28299 17.8565H3.30649L3.20246 17.163H5.87248C5.84936 17.0706 5.8378 16.9897 5.8378 16.9203C5.8378 16.8278 5.82624 16.7354 5.80313 16.6429H6.46196C6.46196 16.5736 6.46196 16.5042 6.46196 16.4348C6.46196 16.3655 6.4504 16.2961 6.42728 16.2268V15.9494H1.91947V15.776H2.92506V15.4293H7.3982V15.2559H6.42728C6.42728 15.1634 6.41573 15.0825 6.39261 15.0132C6.39261 14.9207 6.39261 14.8282 6.39261 14.7357H3.7226V14.0422H4.65883V13.8689H6.11521V13.6955H2.54363V13.002H0.775179V12.6552H6.39261V12.4818H4.72819V11.7883H5.24832V11.4416H5.14429V11.0948H6.39261V10.4013H3.37584V10.2279H10.0335V10.0546C10.0567 9.96209 10.0682 9.88118 10.0682 9.81183C10.0682 9.71936 10.0682 9.62689 10.0682 9.53442H8.23041C8.23041 9.41884 8.23041 9.30325 8.23041 9.18767C8.25353 9.07208 8.27664 8.9565 8.29976 8.84091H9.40938C9.43249 8.79468 9.44405 8.73689 9.44405 8.66754H2.26623C2.28934 8.6213 2.3009 8.56351 2.3009 8.49416C2.3009 8.42481 2.31246 8.36702 2.33558 8.32078H8.64652L8.81989 7.62727H7.3982L7.50223 7.28052H5.17897L5.24832 7.10714H6.01118C6.0343 7.06091 6.05741 7.00311 6.08053 6.93376C6.10365 6.86441 6.12676 6.80662 6.14988 6.76038H5.76845L5.90715 6.41363H6.08053C6.12676 6.32116 6.173 6.24025 6.21923 6.1709C6.26547 6.07843 6.30014 5.98597 6.32326 5.8935H6.35793L6.67001 5.37337H6.56599C6.61222 5.2809 6.65845 5.19999 6.70469 5.13064C6.77404 5.03817 6.84339 4.9457 6.91274 4.85323H6.63534C6.72781 4.73765 6.82027 4.62206 6.91274 4.50648C7.00521 4.36778 7.09768 4.25219 7.19015 4.15972H6.87807C6.90118 4.11349 6.9243 4.07881 6.94742 4.05569C6.97053 4.03258 6.99365 4.00946 7.01677 3.98634H6.67001L6.84339 3.81297H6.77404C6.82027 3.76673 6.85495 3.73206 6.87807 3.70894C6.90118 3.68582 6.9243 3.66271 6.94742 3.63959H6.32326C6.36949 3.59336 6.42728 3.53556 6.49664 3.46621C6.56599 3.39686 6.63534 3.33907 6.70469 3.29284H7.5369C7.65249 3.20037 7.76807 3.11946 7.88366 3.05011C7.99924 2.95764 8.11483 2.86517 8.23041 2.7727H7.84898L8.12638 2.59932H7.5369C7.58313 2.55309 7.62937 2.51842 7.6756 2.4953C7.72184 2.47218 7.76807 2.44906 7.8143 2.42595H9.61743C9.77925 2.33348 9.94107 2.25257 10.1029 2.18322C10.2647 2.09075 10.4265 1.99828 10.5883 1.90582H10.4843C10.623 1.83646 10.7617 1.77867 10.9004 1.73244C11.0391 1.66309 11.1778 1.60529 11.3165 1.55906H11.9754C12.0447 1.51283 12.1141 1.47815 12.1834 1.45503C12.2759 1.43192 12.3684 1.4088 12.4608 1.38568H11.4206C12.1141 1.1314 12.8538 0.958017 13.6398 0.865549H14.576C15.4776 0.726848 16.4254 0.657497 17.4194 0.657497C18.3903 0.657497 19.3266 0.726848 20.2281 0.865549H19.3266C20.0894 0.958017 20.8523 1.1314 21.6152 1.38568H22.6554C22.7479 1.4088 22.8288 1.43192 22.8981 1.45503C22.9906 1.47815 23.0831 1.51283 23.1755 1.55906H22.5167C22.8635 1.67465 23.1524 1.79023 23.3836 1.90582H23.4876C23.6726 1.99828 23.8459 2.09075 24.0078 2.18322C24.1696 2.25257 24.3314 2.33348 24.4932 2.42595H22.7248C22.771 2.44906 22.8172 2.47218 22.8635 2.4953C22.9097 2.51842 22.9559 2.55309 23.0022 2.59932H23.5917C23.6379 2.62244 23.6841 2.64556 23.7304 2.66868C23.7766 2.69179 23.8113 2.72647 23.8344 2.7727H24.2158L24.9093 3.29284H24.0424L24.4585 3.63959H25.0827L25.2908 3.81297H25.3254L25.4988 3.98634H25.8456L26.0189 4.15972H26.331C26.4235 4.25219 26.516 4.36778 26.6084 4.50648C26.7009 4.62206 26.7934 4.73765 26.8858 4.85323H27.1286C27.1979 4.9457 27.2557 5.03817 27.3019 5.13064C27.3713 5.19999 27.4291 5.2809 27.4753 5.37337H27.5793C27.6256 5.46583 27.6718 5.5583 27.718 5.65077C27.7643 5.72012 27.8105 5.80103 27.8567 5.8935H27.7874C27.8336 5.98597 27.8799 6.07843 27.9261 6.1709C27.9723 6.24025 28.007 6.32116 28.0301 6.41363H27.8567L27.9608 6.76038H28.3422L28.4462 7.10714H27.6834C27.6834 7.13026 27.6834 7.15337 27.6834 7.17649C27.7065 7.19961 27.718 7.23428 27.718 7.28052H30.0413C30.0413 7.37298 30.0644 7.48857 30.1106 7.62727H26.9552L27.0592 8.32078H29.0704L29.1051 8.66754H33.3008ZM17.3847 7.62727H19.8467C19.4768 7.48857 19.0607 7.41922 18.5984 7.41922C18.136 7.41922 17.7315 7.48857 17.3847 7.62727ZM23.3836 9.2917C23.3605 9.19923 23.3374 9.11832 23.3143 9.04897C23.2911 8.97962 23.2565 8.91027 23.2102 8.84091H24.0424L23.9384 8.66754H19.7774C19.7542 8.59819 19.7196 8.54039 19.6733 8.49416C19.6271 8.42481 19.5809 8.36702 19.5346 8.32078H11.6633C11.6402 8.36702 11.6055 8.42481 11.5593 8.49416C11.5361 8.54039 11.5015 8.59819 11.4552 8.66754H18.6331L18.5637 8.84091H17.4541C17.4079 8.93338 17.3732 9.04897 17.3501 9.18767C17.3269 9.30325 17.3038 9.41884 17.2807 9.53442H23.4876L23.3836 9.2917ZM19.2919 16.6429H14.8534L14.9575 17.163H12.2874C12.3337 17.3017 12.3799 17.4289 12.4261 17.5445C12.4724 17.6369 12.5302 17.741 12.5995 17.8565H14.576C14.6223 17.9259 14.6685 17.9952 14.7147 18.0646C14.761 18.1108 14.8072 18.1571 14.8534 18.2033H14.7841L14.9575 18.3767H15.5469C15.5932 18.3998 15.6394 18.4345 15.6856 18.4807C15.7319 18.5038 15.7781 18.5269 15.8243 18.5501H16.3792C16.7721 18.7581 17.246 18.8621 17.8008 18.8621C18.3557 18.8621 18.818 18.7581 19.1879 18.5501H18.0436L18.321 18.3767H18.529L18.7371 18.2033H17.8355C17.8818 18.1571 17.928 18.1108 17.9742 18.0646C18.0436 17.9952 18.0898 17.9259 18.1129 17.8565H18.4944C18.6331 17.6485 18.7486 17.4173 18.8411 17.163H19.0838L19.1532 16.9897C19.1994 16.851 19.2457 16.7354 19.2919 16.6429ZM56.3391 17.163V17.3364H59.0438V17.6832H58.9051V18.2033H51.7273V18.3767H52.9756V18.8968H56.7899V19.2436H54.8134V19.9371H54.7094V20.1105H52.4208V20.6306H55.819V20.804H55.9577V21.3241H56.3045V22.0176H49.6121V22.5377H56.6859V22.8845H54.328V23.4046H54.0159V23.7514H54.8134V24.0981H54.2933V24.4449H55.5069L55.4029 24.7916H57.0326C56.9864 24.861 56.9286 24.9303 56.8593 24.9997C56.813 25.0459 56.7552 25.0922 56.6859 25.1384H57.4834C57.3678 25.2309 57.206 25.2771 56.998 25.2771H50.2016C49.9935 25.2771 49.8317 25.2309 49.7161 25.1384H48.9186C48.7568 25.069 48.6412 24.9535 48.5718 24.7916H46.9421L46.8381 24.4449H45.6244V24.0981H46.1445V23.7514H45.347V23.4046H45.6591V22.8845H48.017V22.5377H41.7408V22.8845H38.8627V23.4046H40.8392V23.7514H40.3537V24.0981H42.1569V24.4449H40.215L40.111 24.7916H40.8739C40.7814 24.9535 40.6774 25.069 40.5618 25.1384H39.7296C39.614 25.2309 39.4522 25.2771 39.2441 25.2771H32.4477C32.2166 25.2771 32.0432 25.2309 31.9276 25.1384H32.7598C32.6442 25.069 32.5402 24.9535 32.4477 24.7916H31.6502C31.5808 24.6761 31.5462 24.5605 31.5462 24.4449H33.488V24.0981H31.6849V23.7514H32.1703V23.4046H30.1938V22.8845H33.0719V22.5377H34.7363V22.0176H29.3963V21.3241H31.3728V20.804H32.7598V20.6306H31.7889V20.1105H30.1591V19.9371H30.5059V19.2436H31.6155V18.8968H32.1356V18.3767H29.639V18.2033H36.054V17.6832H28.2173V17.3364H35.6032V17.163H31.9969V16.6429H34.0775V16.4695H34.4936V16.2961H34.3202V15.6026H30.8873V15.0825H32.0316V14.9091H31.7195V14.389H31.8582V14.2156H31.8929V13.8689H31.9276V13.6955H31.4768V13.5221H30.1245V13.002H30.5752V12.4818H29.8817V11.9617H31.6155V11.2682H31.2341V10.9214H28.7028V10.7481H32.7598V10.4013H33.7307V10.2279H24.3683V10.0546H29.8817V9.88118H31.8582V9.36105H28.3213V8.66754H27.3504V8.1474H31.5115V7.4539H31.8582V6.93376H34.0775V6.76038H32.1703V6.06687H33.7307V5.72012H31.8582V5.54674H31.1994V5.19999H30.1938V4.85323H28.9802V4.15972H31.1647V3.63959H32.4824V3.11946H31.8582V2.7727H30.9914V2.59932H31.4768V2.25257H31.3728V1.94049C31.3728 1.77867 31.4075 1.65153 31.4768 1.55906H33.696C33.7192 1.48971 33.7538 1.43192 33.8001 1.38568C33.8463 1.31633 33.8925 1.25854 33.9388 1.21231H39.2788C39.4175 1.0736 39.614 1.00425 39.8683 1.00425H53.1837C53.4148 1.00425 53.6113 1.0736 53.7732 1.21231H59.1132C59.1594 1.25854 59.2056 1.31633 59.2519 1.38568C59.3212 1.43192 59.3675 1.48971 59.3906 1.55906H54.9174C54.9637 1.69776 54.9868 1.82491 54.9868 1.94049V2.25257H55.1602V2.59932H55.6456V2.7727H54.7094V3.11946H54.2933V3.63959H55.6456V4.15972H52.3861V4.85323H56.1311V5.19999H53.4264V5.54674H54.536V5.72012H53.9812V6.06687H56.5819V6.76038H52.7676V6.93376H55.715V7.4539H55.1948V8.1474H52.4208V8.66754H51.2765V9.36105H54.8134V9.88118H52.8369V10.0546H47.3235V10.2279H56.6859V10.4013H55.715V10.7481H51.6579V10.9214H54.1893V11.2682H54.5707V11.9617H52.8369V12.4818H53.5304V13.002H53.0796V13.5221H54.432V13.6955H54.8828V13.8689H54.8481V14.2156H54.8134V14.389H54.6747V14.9091H54.9868V15.0825H53.8425V15.6026H57.2754V16.2961H57.4488V16.4695H57.0326V16.6429H54.9521V17.163H56.3391ZM36.0193 8.1474V8.66754H36.9902V9.22234H42.6076V8.66754H43.7519V8.1474H46.526V7.4539H47.0461V6.93376H44.0987V6.76038H47.913V6.06687H45.3123V5.72012H45.8671V5.54674H44.7575V5.19999H47.4622V4.85323H43.7173V4.15972H46.9768V3.63959H45.6244V3.11946H46.0405V2.7727H46.9768V2.59932H46.4913V2.25257H46.3179V1.94049C46.3179 1.82491 46.341 1.69776 46.3873 1.55906H50.8604C50.9066 1.48971 50.9529 1.43192 50.9991 1.38568C51.0453 1.31633 51.0916 1.25854 51.1378 1.21231H41.9141C42.0297 1.30477 42.1222 1.42036 42.1915 1.55906H39.9723C40.0185 1.62841 40.0417 1.75555 40.0417 1.94049V2.25257H40.1457V2.59932H39.6602V2.7727H40.5271V3.11946H41.1513V3.63959H39.8336V4.15972H37.649V4.85323H38.8627V5.19999H39.8683V5.54674H40.5271V5.72012H42.3996V6.06687H40.8392V6.76038H42.7463V6.93376H40.5271V7.4539H40.1804V8.1474H36.0193ZM50.375 17.6832V17.3364H47.6703V17.163H46.2832V16.851H40.6658V17.163H44.2721V17.3364H36.8862V17.6832H44.7228V18.2033H50.2363V17.6832H50.375ZM48.121 18.8968H44.3067V18.3767H43.0584V18.2033H38.3079V18.3767H40.8045V18.8968H40.2844V19.2436H39.1748V19.9371H38.828V20.1105H40.4578V20.6306H41.4287V20.804H40.0417V21.3241H38.0652V22.0176H47.6356V21.3241H47.2888V20.804H47.1501V20.6306H43.7519V20.1105H46.0405V19.9371H46.1445V19.2436H48.121V18.8968ZM83.8528 23.4046L84.0955 24.0981H83.506L83.5754 24.2715C83.5754 24.2946 83.5754 24.3293 83.5754 24.3755C83.5985 24.3987 83.6101 24.4218 83.6101 24.4449H83.402V24.5142C83.402 24.7916 83.298 24.9997 83.0899 25.1384H83.1246C83.009 25.2309 82.8588 25.2771 82.6738 25.2771H76.2589C76.097 25.2771 75.9583 25.2655 75.8427 25.2424C75.7503 25.1962 75.6463 25.1615 75.5307 25.1384C75.3457 25.0459 75.207 24.9419 75.1146 24.8263C75.0221 24.6876 74.9527 24.5605 74.9065 24.4449H75.0799V24.4102L75.0105 24.2715L74.9412 24.0981H75.5307L75.2879 23.4046H74.6291L74.5251 23.0579H75.9468L75.704 22.3644H75.2879L75.1839 22.1216H67.7287L67.6593 22.3644H67.2432L67.0005 23.0579H66.6191L66.4804 23.4046H66.2723L66.0296 24.0981H66.0643L65.9949 24.2715L65.9602 24.4102L65.9256 24.4449H65.7522C65.7059 24.5605 65.6366 24.6876 65.5441 24.8263C65.4517 24.9419 65.313 25.0459 65.128 25.1384H66.1683C66.0758 25.1615 65.9718 25.1962 65.8562 25.2424C65.7406 25.2655 65.6019 25.2771 65.4401 25.2771H59.0251C58.8402 25.2771 58.7015 25.2309 58.609 25.1384H57.5688C57.3376 24.9766 57.222 24.7685 57.222 24.5142V24.4449H57.4301C57.4301 24.3755 57.4416 24.3177 57.4647 24.2715L57.4994 24.0981H57.4647L57.7075 23.4046H57.9155L58.0542 23.0579H58.4357L58.6784 22.3644H59.0598L59.3025 21.6708H57.9502L58.0889 21.3241H57.9849L58.1582 20.804H58.505L58.5744 20.6306H57.8115L58.0542 19.9371H59.2332L59.3372 19.5903H58.2623L58.3316 19.4169H58.505L58.7477 18.7234H58.6437L58.8171 18.2033H58.9558L59.1985 17.5098H59.6493L59.8227 16.9897L59.892 16.8163H61.6258L61.6951 16.6429H61.5911L61.7645 16.1228H59.8227L60.0654 15.4293H60.6896L60.7589 15.2559H60.3775L60.4468 15.0825H61.5564L61.7992 14.389H60.4468L60.5855 14.0422H61.1057L61.3484 13.3487H61.0363L61.2097 12.8286H61.5911L61.8338 12.1351H61.7298L61.7992 11.9617H61.0016L61.1403 11.615H61.9032L62.0766 11.0948H61.7298L61.7645 10.9214H62.3887L62.6314 10.2279H61.8685L62.0419 9.7078H61.6605L61.7645 9.36105H59.3719L59.4759 9.01429H59.0251L59.2679 8.32078H58.8171L59.0251 7.80065H60.3775L60.6202 7.10714H64.0878L64.2611 6.58701H62.5967L62.7354 6.24025H64.0184L64.2611 5.54674H63.1168L63.2902 5.02661H64.0184L64.2611 4.3331H64.1571L64.3998 3.63959H63.4289L63.4636 3.46621H66.7924L67.0352 2.7727H66.9311L67.0005 2.59932H65.7869L65.9256 2.14854L66.0296 1.90582H66.3763L66.5844 1.55906H66.4804C66.596 1.39724 66.7578 1.2701 66.9658 1.17763C67.1739 1.06204 67.4282 1.00425 67.7287 1.00425H75.2533C75.5538 1.00425 75.8081 1.06204 76.0161 1.17763C76.2242 1.2701 76.386 1.39724 76.5016 1.55906H76.6403L76.8483 1.90582H76.5016C76.5478 1.99828 76.5709 2.07919 76.5709 2.14854L76.7443 2.59932H77.958L77.9926 2.7727H78.0967L78.3394 3.46621H75.0452L75.1146 3.63959H76.0855L76.3282 4.3331H76.4322L76.675 5.02661H75.9468L76.1202 5.54674H77.2644L77.5072 6.24025H76.2242L76.3629 6.58701H78.0273L78.2007 7.10714H74.7331L74.9759 7.80065H73.6235L73.7969 8.32078H74.213L74.4557 9.01429H73.1034L73.2421 9.36105H78.7555L78.8595 9.7078H78.5821L78.7555 10.2279H78.062L78.3047 10.9214H77.4725L77.5072 11.0948H78.7555L78.9289 11.615H78.9635L79.1022 11.9617H77.958L78.0273 12.1351H79.1369L79.3796 12.8286H79.7611L79.9345 13.3487H79.8304L80.0732 14.0422H80.628L80.7667 14.389H79.7611L80.0038 15.0825H80.6973L80.732 15.2559H80.5586L80.628 15.4293H80.0038L80.2119 16.1228H82.1884L82.3617 16.6429H82.4658L82.5351 16.8163H80.7667L80.836 16.9897H80.8707L81.0441 17.5098H80.5933L80.836 18.2033H80.6626L80.8707 18.7234H80.9747L81.2175 19.4169H81.0441L81.1134 19.5903H82.1884L82.3271 19.9371H81.1134L81.3562 20.6306H82.119L82.1884 20.804H81.8416L82.0497 21.3241H82.119L82.2577 21.6708H83.6101L83.8528 22.3644H84.2689L84.5116 23.0579H83.0899L83.194 23.4046H83.8528ZM69.3584 9.7078H69.7745L69.6012 10.2279H71.0229L70.8495 9.7078H71.1269L71.0229 9.36105H69.4625L69.3584 9.7078ZM70.5027 10.9214L70.3293 10.332L70.156 10.9214H70.5027ZM68.4222 15.0825L68.3528 15.2559H68.7343L68.6996 15.3599H72.6179L72.5833 15.2559H72.7566L72.722 15.0825H72.0284L71.8204 14.389H72.826L72.722 14.0422H72.1325L71.9244 13.3487H72.0284L71.8897 12.8286H71.5083L71.3003 12.1351H70.1906L70.1213 11.9617H71.2656L71.1616 11.615H71.1269L70.9535 11.0948H69.8439L69.7052 11.615H68.9423L68.8383 11.9617H69.6012L69.5665 12.1351H69.6705L69.4625 12.8286H69.081L68.9077 13.3487H69.2197L69.0117 14.0422H68.4915L68.3875 14.389H69.7399L69.5318 15.0825H68.4222ZM106.341 4.15972H99.8918V4.85323H102.354V5.37337H105.024V5.8935H104.954V6.41363H105.96V7.10714H102.18V7.28052H101.452V7.52325C101.452 7.68506 101.418 7.83533 101.348 7.97403H103.81C103.648 8.29767 103.382 8.45948 103.013 8.45948H97.2565V8.49416H97.6032V9.18767H97.6726V9.88118H97.4992V10.5747H97.0484V11.0948H98.7822V11.4416H97.3258V11.9617H96.563V12.6552H97.8807V13.002H97.6379V13.6955H97.3952V14.389H96.9791V15.0825H96.5977V15.6026H97.8807V16.1228H97.3605V16.8163H97.5686V16.9897H97.8113V17.3364H99.5451V17.8565H98.3661V18.5501H98.8862V19.2436H97.4299V19.9371H98.0194V20.2838H98.2621V20.804H98.8169V21.4975H98.6088V22.0176H97.7073V22.5377H97.6032V22.8845H97.5686V23.4046H97.95V23.9248H97.6379V24.3409C97.6379 24.4564 97.6264 24.5489 97.6032 24.6183H97.2565C97.1871 24.8494 97.06 25.0228 96.8751 25.1384H96.9444C96.8288 25.2309 96.667 25.2771 96.459 25.2771H89.5239C89.3389 25.2771 89.1655 25.2309 89.0037 25.1384H88.9344C88.7726 25.0228 88.6454 24.8494 88.5529 24.6183H88.865C88.8419 24.5489 88.8303 24.4564 88.8303 24.3409V23.9248H89.1424V23.4046H88.761V22.8845H88.7957V22.5377H88.8997V22.0176H89.8013V21.4975H90.0093V20.804H89.4545V20.2838H89.2118V19.9371H88.6223V19.2436H90.0787V18.5501H89.5585V17.8565H90.7375V17.3364H89.0037V16.9897H88.761V16.8163H88.5529V16.1228H89.0731V15.6026H87.7901V15.0825H88.1715V14.389H88.5876V13.6955H88.8303V13.002H89.0731V12.6552H87.7554V11.9617H88.5183V11.4416H89.9746V11.0948H88.2409V10.5747H88.6916V9.88118H88.865V9.18767H88.7957V8.49416H88.4489V8.45948H82.6928C82.346 8.45948 82.0686 8.29767 81.8606 7.97403H79.3986C79.3755 7.90468 79.3524 7.83532 79.3293 7.76597C79.283 7.69662 79.2599 7.61571 79.2599 7.52325V7.28052H79.9881V7.10714H83.7677V6.41363H82.7621V5.8935H82.8315V5.37337H80.1615V4.85323H77.6995V4.15972H84.1492V3.63959H80.5429V2.94608H81.2364V2.25257H82.138V2.07919H82.6581V1.94049C82.6581 1.70932 82.7275 1.52438 82.8662 1.38568H82.1033C82.2882 1.1314 82.5425 1.00425 82.8662 1.00425H103.186C103.51 1.00425 103.764 1.1314 103.949 1.38568H104.677C104.793 1.5475 104.85 1.73244 104.85 1.94049V2.07919H104.33V2.25257H103.429V2.94608H102.735V3.63959H106.341V4.15972Z" fill="url(#paint0_linear_221_581)"/>
<path d="M134.735 8.66754V8.84091H133.903C133.926 8.9565 133.937 9.07208 133.937 9.18767C133.937 9.30325 133.937 9.41884 133.937 9.53442H127.869C127.869 9.83495 127.719 10.0661 127.418 10.2279C127.28 10.2742 127.175 10.2973 127.106 10.2973H120.032C119.94 10.2973 119.847 10.2973 119.755 10.2973C119.662 10.2742 119.57 10.2511 119.478 10.2279H113.825V10.4013H116.877C116.854 10.5169 116.842 10.6325 116.842 10.7481C116.842 10.8637 116.842 10.9792 116.842 11.0948H115.629C115.605 11.1411 115.594 11.1988 115.594 11.2682C115.594 11.3375 115.594 11.3953 115.594 11.4416H115.698V11.7883H115.178V12.4818H116.842V12.6552H111.225V13.002H112.993V13.6955H116.565V13.8689H115.108V14.0422H114.172V14.7357H116.842C116.865 14.8282 116.877 14.9207 116.877 15.0132C116.877 15.0825 116.877 15.1634 116.877 15.2559H117.848V15.4293H113.375V15.776H112.369V15.9494H116.877V15.9841H123.812C124.251 15.9841 124.505 16.2037 124.575 16.6429H129.707V17.163H129.464L129.395 17.8565H129.013L128.979 18.2033H129.88C129.88 18.2726 129.869 18.3304 129.846 18.3767H129.637C129.614 18.4229 129.603 18.4807 129.603 18.5501H130.747L130.643 19.0702H129.568C129.568 19.0933 129.557 19.1164 129.533 19.1395C129.533 19.1627 129.533 19.1973 129.533 19.2436H129.256C129.233 19.336 129.198 19.4285 129.152 19.521C129.129 19.5903 129.106 19.6712 129.083 19.7637H129.499C129.499 19.7868 129.476 19.8446 129.429 19.9371H128.736C128.69 20.0527 128.632 20.1682 128.563 20.2838C128.516 20.3994 128.458 20.515 128.389 20.6306H129.083L128.771 21.1507H129.083L128.736 21.6708H128.528C128.435 21.7864 128.331 21.902 128.216 22.0176C128.123 22.1332 128.019 22.2488 127.904 22.3644H127.626C127.603 22.3875 127.58 22.4106 127.557 22.4337C127.534 22.4568 127.499 22.4915 127.453 22.5377H125.962L125.788 22.7111H132.758C132.62 22.8267 132.481 22.9423 132.342 23.0579C132.203 23.1735 132.053 23.289 131.891 23.4046H131.51C131.279 23.5664 131.001 23.7398 130.678 23.9248H123.361C123.13 24.0635 122.887 24.1906 122.633 24.3062C122.379 24.3987 122.124 24.5027 121.87 24.6183H127.592C127.522 24.6414 127.441 24.6645 127.349 24.6876C127.28 24.7107 127.199 24.7454 127.106 24.7916H125.719C125.627 24.8148 125.534 24.8379 125.442 24.861C125.349 24.8841 125.257 24.9188 125.164 24.965H122.668C121.835 25.1962 120.98 25.3696 120.102 25.4852H120.656C120.287 25.5314 119.905 25.5661 119.512 25.5892C119.119 25.6123 118.726 25.6239 118.333 25.6239C117.894 25.6239 117.466 25.6123 117.05 25.5892C116.657 25.5661 116.264 25.5314 115.871 25.4852H115.316C114.392 25.3696 113.536 25.1962 112.75 24.965H115.247C115.155 24.9188 115.062 24.8841 114.97 24.861C114.9 24.8379 114.819 24.8148 114.727 24.7916H116.149L115.663 24.6183H109.942C109.711 24.5027 109.468 24.3987 109.214 24.3062C108.982 24.1906 108.751 24.0635 108.52 23.9248H115.871C115.733 23.8323 115.594 23.7514 115.455 23.682C115.316 23.5896 115.189 23.4971 115.074 23.4046H115.455C115.178 23.1966 114.912 22.9654 114.658 22.7111H107.653C107.63 22.6649 107.607 22.6302 107.584 22.6071C107.561 22.584 107.526 22.5609 107.48 22.5377H109.006C108.982 22.4915 108.948 22.4568 108.902 22.4337C108.878 22.4106 108.855 22.3875 108.832 22.3644H109.11C108.902 22.1332 108.705 21.902 108.52 21.6708H108.728L108.416 21.1507H108.104L107.792 20.6306H107.098L106.786 19.9371H107.514L107.445 19.7637H106.994C106.971 19.6712 106.948 19.5903 106.925 19.521C106.902 19.4285 106.867 19.336 106.821 19.2436H107.098L107.029 19.0702H108.104C108.081 18.9777 108.058 18.8968 108.035 18.8275C108.011 18.735 107.988 18.6425 107.965 18.5501H107.41C107.387 18.5038 107.376 18.446 107.376 18.3767H106.786C106.763 18.3304 106.752 18.2726 106.752 18.2033H106.786C106.786 18.1108 106.763 17.9952 106.717 17.8565H104.74L104.636 17.163H107.306C107.283 17.0706 107.272 16.9897 107.272 16.9203C107.272 16.8278 107.26 16.7354 107.237 16.6429H107.896C107.896 16.5736 107.896 16.5042 107.896 16.4348C107.896 16.3655 107.884 16.2961 107.861 16.2268V15.9494H103.353V15.776H104.359V15.4293H108.832V15.2559H107.861C107.861 15.1634 107.85 15.0825 107.827 15.0132C107.827 14.9207 107.827 14.8282 107.827 14.7357H105.157V14.0422H106.093V13.8689H107.549V13.6955H103.978V13.002H102.209V12.6552H107.827V12.4818H106.162V11.7883H106.682V11.4416H106.578V11.0948H107.827V10.4013H104.81V10.2279H111.467V10.0546C111.491 9.96209 111.502 9.88118 111.502 9.81183C111.502 9.71936 111.502 9.62689 111.502 9.53442H109.664C109.664 9.41884 109.664 9.30325 109.664 9.18767C109.687 9.07208 109.711 8.9565 109.734 8.84091H110.843C110.866 8.79468 110.878 8.73689 110.878 8.66754H103.7C103.723 8.6213 103.735 8.56351 103.735 8.49416C103.735 8.42481 103.746 8.36702 103.77 8.32078H110.08L110.254 7.62727H108.832L108.936 7.28052H106.613L106.682 7.10714H107.445C107.468 7.06091 107.491 7.00311 107.514 6.93376C107.538 6.86441 107.561 6.80662 107.584 6.76038H107.202L107.341 6.41363H107.514C107.561 6.32116 107.607 6.24025 107.653 6.1709C107.699 6.07843 107.734 5.98597 107.757 5.8935H107.792L108.104 5.37337H108C108.046 5.2809 108.092 5.19999 108.139 5.13064C108.208 5.03817 108.277 4.9457 108.347 4.85323H108.069C108.162 4.73765 108.254 4.62206 108.347 4.50648C108.439 4.36778 108.532 4.25219 108.624 4.15972H108.312C108.335 4.11349 108.358 4.07881 108.381 4.05569C108.404 4.03258 108.428 4.00946 108.451 3.98634H108.104L108.277 3.81297H108.208C108.254 3.76673 108.289 3.73206 108.312 3.70894C108.335 3.68582 108.358 3.66271 108.381 3.63959H107.757C107.803 3.59336 107.861 3.53556 107.931 3.46621C108 3.39686 108.069 3.33907 108.139 3.29284H108.971C109.086 3.20037 109.202 3.11946 109.318 3.05011C109.433 2.95764 109.549 2.86517 109.664 2.7727H109.283L109.56 2.59932H108.971C109.017 2.55309 109.063 2.51842 109.11 2.4953C109.156 2.47218 109.202 2.44906 109.248 2.42595H111.051C111.213 2.33348 111.375 2.25257 111.537 2.18322C111.699 2.09075 111.86 1.99828 112.022 1.90582H111.918C112.057 1.83646 112.196 1.77867 112.334 1.73244C112.473 1.66309 112.612 1.60529 112.75 1.55906H113.409C113.479 1.51283 113.548 1.47815 113.617 1.45503C113.71 1.43192 113.802 1.4088 113.895 1.38568H112.855C113.548 1.1314 114.288 0.958017 115.074 0.865549H116.01C116.912 0.726848 117.859 0.657497 118.853 0.657497C119.824 0.657497 120.761 0.726848 121.662 0.865549H120.761C121.523 0.958017 122.286 1.1314 123.049 1.38568H124.089C124.182 1.4088 124.263 1.43192 124.332 1.45503C124.425 1.47815 124.517 1.51283 124.61 1.55906H123.951C124.297 1.67465 124.586 1.79023 124.818 1.90582H124.922C125.107 1.99828 125.28 2.09075 125.442 2.18322C125.604 2.25257 125.765 2.33348 125.927 2.42595H124.159C124.205 2.44906 124.251 2.47218 124.297 2.4953C124.344 2.51842 124.39 2.55309 124.436 2.59932H125.026C125.072 2.62244 125.118 2.64556 125.164 2.66868C125.211 2.69179 125.245 2.72647 125.268 2.7727H125.65L126.343 3.29284H125.476L125.892 3.63959H126.517L126.725 3.81297H126.759L126.933 3.98634H127.28L127.453 4.15972H127.765C127.857 4.25219 127.95 4.36778 128.042 4.50648C128.135 4.62206 128.227 4.73765 128.32 4.85323H128.563C128.632 4.9457 128.69 5.03817 128.736 5.13064C128.805 5.19999 128.863 5.2809 128.909 5.37337H129.013C129.06 5.46583 129.106 5.5583 129.152 5.65077C129.198 5.72012 129.244 5.80103 129.291 5.8935H129.221C129.268 5.98597 129.314 6.07843 129.36 6.1709C129.406 6.24025 129.441 6.32116 129.464 6.41363H129.291L129.395 6.76038H129.776L129.88 7.10714H129.117C129.117 7.13026 129.117 7.15337 129.117 7.17649C129.14 7.19961 129.152 7.23428 129.152 7.28052H131.475C131.475 7.37298 131.498 7.48857 131.545 7.62727H128.389L128.493 8.32078H130.504L130.539 8.66754H134.735ZM118.819 7.62727H121.281C120.911 7.48857 120.495 7.41922 120.032 7.41922C119.57 7.41922 119.165 7.48857 118.819 7.62727ZM124.818 9.2917C124.794 9.19923 124.771 9.11832 124.748 9.04897C124.725 8.97962 124.69 8.91027 124.644 8.84091H125.476L125.372 8.66754H121.211C121.188 8.59819 121.154 8.54039 121.107 8.49416C121.061 8.42481 121.015 8.36702 120.969 8.32078H113.097C113.074 8.36702 113.039 8.42481 112.993 8.49416C112.97 8.54039 112.935 8.59819 112.889 8.66754H120.067L119.998 8.84091H118.888C118.842 8.93338 118.807 9.04897 118.784 9.18767C118.761 9.30325 118.738 9.41884 118.715 9.53442H124.922L124.818 9.2917ZM120.726 16.6429H116.287L116.391 17.163H113.721C113.768 17.3017 113.814 17.4289 113.86 17.5445C113.906 17.6369 113.964 17.741 114.033 17.8565H116.01C116.056 17.9259 116.102 17.9952 116.149 18.0646C116.195 18.1108 116.241 18.1571 116.287 18.2033H116.218L116.391 18.3767H116.981C117.027 18.3998 117.073 18.4345 117.12 18.4807C117.166 18.5038 117.212 18.5269 117.258 18.5501H117.813C118.206 18.7581 118.68 18.8621 119.235 18.8621C119.79 18.8621 120.252 18.7581 120.622 18.5501H119.478L119.755 18.3767H119.963L120.171 18.2033H119.269C119.316 18.1571 119.362 18.1108 119.408 18.0646C119.478 17.9952 119.524 17.9259 119.547 17.8565H119.928C120.067 17.6485 120.183 17.4173 120.275 17.163H120.518L120.587 16.9897C120.633 16.851 120.68 16.7354 120.726 16.6429ZM146.538 6.93376H140.886V7.62727H143.14V8.32078H146.122V8.84091H142.759V9.01429H143.175V9.7078H142.308V9.88118H142.238V10.0546H141.372V10.7481H143.001V10.9214H143.071V11.0948H142.689V11.615H142.447V11.7883H143.591V12.4818H140.817V13.1754H141.822V13.6955H142.377V14.389H142.447V15.0825H142.169V15.9494H142.481V16.2961H142.273V16.8163H142.238V16.9897H141.961V17.6832H142.273V18.0299H142.238V20.1105H142.273V20.804H142.863V21.4975H142.377V21.8442H142.238V22.191H142.655V22.8845H142.065V23.0579H142.932V23.4046H143.244V23.578H142.967V24.0981H142.828V24.3409C142.828 24.3871 142.816 24.4333 142.793 24.4796C142.793 24.5258 142.782 24.572 142.759 24.6183H141.892C141.869 24.7339 141.799 24.8494 141.684 24.965H142.655C142.562 25.0575 142.493 25.1153 142.447 25.1384H140.47C140.354 25.2309 140.193 25.2771 139.985 25.2771H132.911C132.703 25.2771 132.541 25.2309 132.425 25.1384H134.402C134.309 25.1153 134.24 25.0575 134.194 24.965H133.223C133.107 24.8494 133.038 24.7339 133.015 24.6183H133.916C133.893 24.5489 133.882 24.4564 133.882 24.3409V24.0981H134.02V23.578H134.298V23.4046H133.986V23.0579H133.119V22.8845H133.708V22.191H133.292V21.8442H133.431V21.4975H133.916V20.804H133.327V20.1105H133.292V18.0299H133.327V17.6832H133.015V16.9897H133.292V16.8163H133.327V16.2961H133.535V15.9494H133.223V15.0825H133.5V14.389H133.431V13.6955H132.876V13.1754H131.87V12.4818H134.645V11.7883H133.5V11.615H133.743V11.0948H134.124V10.9214H134.055V10.7481H132.425V10.0546H133.292V9.88118H133.362V9.7078H134.228V9.01429H133.812V8.84091H137.176V8.32078H134.194V7.62727H131.94V6.93376H137.592V6.76038H134.055V6.24025H134.02V5.72012H133.396V5.54674H135.511V5.19999H133.916V4.50648H134.055V3.98634H133.084V3.29284H133.258V2.94608H133.153V2.59932H133.431V2.42595H133.119V1.94049C133.119 1.82491 133.142 1.69776 133.188 1.55906H133.362C133.523 1.18919 133.812 1.00425 134.228 1.00425H141.302C141.718 1.00425 142.007 1.18919 142.169 1.55906H141.996C142.042 1.69776 142.065 1.82491 142.065 1.94049V2.42595H142.377V2.59932H142.1V2.94608H142.204V3.29284H142.03V3.98634H143.001V4.50648H142.863V5.19999H144.458V5.54674H142.342V5.72012H142.967V6.24025H143.001V6.76038H146.538V6.93376ZM168.667 11.4416H166.968C166.945 11.534 166.922 11.6265 166.898 11.719C166.875 11.7883 166.841 11.8692 166.794 11.9617H167.765L167.661 12.3085H166.829C166.76 12.5165 166.667 12.7477 166.552 13.002H166.032C165.939 13.2331 165.812 13.4643 165.65 13.6955H165.719C165.627 13.8111 165.546 13.9267 165.477 14.0422C165.407 14.1578 165.326 14.2734 165.234 14.389H168.979L168.528 14.9091H165.442C165.35 15.0247 165.234 15.1403 165.095 15.2559C164.957 15.3715 164.829 15.4871 164.714 15.6026H165.165C165.072 15.6951 164.957 15.7876 164.818 15.88C164.702 15.9494 164.587 16.0303 164.471 16.1228H165.615L165.477 16.2268L165.789 16.8163H164.957L165.338 17.5098H165.442L165.546 17.6832H165.511L165.858 18.3767H166.205L166.413 18.7234H163.743L164.02 19.2436H166.448L166.656 19.5903H165.893L166.17 20.1105H169.603L169.985 20.804H167.696L167.973 21.3241H166.898L167.453 22.3644H167.696L167.904 22.7111H167.8L167.904 22.8845H166.274L166.656 23.578L166.725 23.7514H165.65L165.824 24.1328C165.893 24.2253 165.928 24.3293 165.928 24.4449H166.656V24.5142C166.656 24.7685 166.552 24.9766 166.344 25.1384H167.28C167.164 25.2309 167.014 25.2771 166.829 25.2771H159.721C159.582 25.2771 159.455 25.2655 159.339 25.2424C159.247 25.1962 159.143 25.1615 159.027 25.1384H158.091C157.906 25.0459 157.744 24.9303 157.605 24.7916C157.49 24.6529 157.397 24.5374 157.328 24.4449H156.634L156.565 24.3409L156.322 23.7514H157.432L157.328 23.578H154.034V23.7514H152.265V24.4449H155.074C155.028 24.7685 154.878 24.9997 154.623 25.1384H154.381C154.219 25.2309 154.045 25.2771 153.86 25.2771H147.064C146.856 25.2771 146.694 25.2309 146.579 25.1384H146.856C146.602 24.9997 146.451 24.7685 146.405 24.4449H143.631C143.631 24.4218 143.631 24.4102 143.631 24.4102C143.608 24.3871 143.597 24.364 143.597 24.3409V23.7514H145.365V23.578H148.833V22.8845H145.122V22.7111H147.307V22.3644H146.579V21.8442H147.792V21.3241H145.816V20.804H148.486V20.1105H146.96V19.5903H146.925V19.4169H146.717V19.2436H145.781V18.7234H146.96V18.3767H146.648V17.6832H146.683V17.5098H146.579V16.8163H147.411V16.1228H146.232V15.6026H145.781V14.9091H148.833V14.389H145.088V13.6955H145.018V13.002H145.538V12.3085H146.336V11.9617H145.365V11.4416H147.064V11.0948H149.561V10.7481H146.128V10.5747H146.301V10.4013H146.613V10.2279H146.648V9.88118H146.579V9.36105H146.717V8.66754H146.544V8.32078H146.717V7.80065H146.579V7.62727H146.683V7.28052H146.648V7.10714H146.509V6.93376H146.821V6.41363H147.099V5.8935H145.469V5.19999H145.85V4.50648H145.642V3.98634H146.579V3.46621H146.925V2.94608H146.301V2.59932H146.544V2.42595H146.613V1.90582H146.683C146.683 1.65153 146.787 1.42036 146.995 1.21231H148.867C149.006 1.0736 149.202 1.00425 149.457 1.00425H159.721C160.715 1.00425 161.639 1.0736 162.495 1.21231H160.657C161.582 1.35101 162.46 1.58218 163.292 1.90582H163.223C163.616 2.04452 163.997 2.21789 164.367 2.42595H164.298L164.61 2.59932H164.332C164.448 2.64556 164.541 2.70335 164.61 2.7727C164.702 2.84205 164.795 2.89985 164.887 2.94608H165.511C165.627 3.03855 165.743 3.13102 165.858 3.22348C165.974 3.29283 166.078 3.37374 166.17 3.46621H165.824C165.939 3.55868 166.032 3.65115 166.101 3.74362C166.193 3.81297 166.286 3.89388 166.378 3.98634H165.442C165.535 4.07881 165.615 4.17128 165.685 4.26375C165.754 4.3331 165.824 4.41401 165.893 4.50648H166.066C166.251 4.73765 166.413 4.96882 166.552 5.19999H166.205C166.274 5.29245 166.332 5.40804 166.378 5.54674C166.448 5.66233 166.517 5.77791 166.586 5.8935H168.216L168.424 6.41363H168.147C168.17 6.5061 168.193 6.59857 168.216 6.69103C168.262 6.76038 168.297 6.84129 168.32 6.93376H167.973L168.043 7.10714H168.181C168.205 7.15337 168.216 7.21117 168.216 7.28052L168.32 7.62727H168.424C168.424 7.69662 168.436 7.75441 168.459 7.80065H168.494C168.517 7.89312 168.528 7.98559 168.528 8.07805C168.551 8.1474 168.563 8.22831 168.563 8.32078H168.112C168.112 8.36702 168.112 8.42481 168.112 8.49416C168.112 8.56351 168.124 8.6213 168.147 8.66754H168.355C168.355 8.78312 168.355 8.89871 168.355 9.01429C168.378 9.12988 168.389 9.24546 168.389 9.36105V9.7078H168.598V9.88118H168.389V10.2279H168.043C168.043 10.2511 168.031 10.2742 168.008 10.2973C168.008 10.3204 168.008 10.3551 168.008 10.4013H168.355C168.355 10.4244 168.343 10.4475 168.32 10.4707C168.32 10.4938 168.32 10.5285 168.32 10.5747H169.95C169.927 10.6209 169.915 10.6787 169.915 10.7481H170.366L170.331 11.0948H168.736C168.69 11.2335 168.667 11.3491 168.667 11.4416ZM154.797 10.7481H158.23V11.0948H155.733V11.1295H158.264C158.426 11.1295 158.553 11.1179 158.646 11.0948H160.241C160.495 11.0255 160.726 10.9099 160.934 10.7481H160.449L160.622 10.5747H158.992C159.062 10.5053 159.108 10.4475 159.131 10.4013H158.784L158.888 10.2279H159.235L159.339 9.88118H159.513C159.536 9.83495 159.547 9.77715 159.547 9.7078H159.339L159.374 9.36105C159.374 9.12988 159.339 8.89871 159.27 8.66754H159.062C159.039 8.6213 159.016 8.56351 158.992 8.49416C158.992 8.42481 158.969 8.36702 158.923 8.32078H159.409C159.316 8.13585 159.189 7.96247 159.027 7.80065H158.958C158.888 7.7313 158.807 7.67351 158.715 7.62727H158.611C158.38 7.51169 158.137 7.4539 157.883 7.4539H155.352V7.62727H155.247V7.80065H155.386V8.32078H155.213V8.66754H155.386V9.36105H155.247V9.88118H155.317V10.2279H155.282V10.4013H154.97V10.5747H154.797V10.7481ZM157.536 18.7234L157.397 18.3767H157.016L156.739 17.7178H155.317V18.3767H155.629V18.7234H157.536ZM154.45 18.7234V19.2436H155.109L154.901 18.7234H154.45ZM157.605 19.4169L157.536 19.2436H155.386V19.4169H155.594V19.5903H155.629V20.1105H157.155V20.804H154.485V21.3241H156.461V21.8442H155.247V22.3644H155.976V22.7111H153.791V22.8845H158.68L158.576 22.7111H158.68L158.507 22.3644H158.23L158.022 21.8442L157.779 21.3241H158.888L158.646 20.804H160.9L160.588 20.1105H157.155L156.947 19.5903H157.709L157.605 19.4169ZM199.348 8.66754V8.84091H198.515C198.539 8.9565 198.55 9.07208 198.55 9.18767C198.55 9.30325 198.55 9.41884 198.55 9.53442H192.482C192.482 9.83495 192.332 10.0661 192.031 10.2279C191.892 10.2742 191.788 10.2973 191.719 10.2973H184.645C184.553 10.2973 184.46 10.2973 184.368 10.2973C184.275 10.2742 184.183 10.2511 184.09 10.2279H178.438V10.4013H181.49C181.467 10.5169 181.455 10.6325 181.455 10.7481C181.455 10.8637 181.455 10.9792 181.455 11.0948H180.241C180.218 11.1411 180.207 11.1988 180.207 11.2682C180.207 11.3375 180.207 11.3953 180.207 11.4416H180.311V11.7883H179.791V12.4818H181.455V12.6552H175.838V13.002H177.606V13.6955H181.178V13.8689H179.721V14.0422H178.785V14.7357H181.455C181.478 14.8282 181.49 14.9207 181.49 15.0132C181.49 15.0825 181.49 15.1634 181.49 15.2559H182.461V15.4293H177.988V15.776H176.982V15.9494H181.49V15.9841H188.425C188.864 15.9841 189.118 16.2037 189.188 16.6429H194.32V17.163H194.077L194.008 17.8565H193.626L193.592 18.2033H194.493C194.493 18.2726 194.482 18.3304 194.458 18.3767H194.25C194.227 18.4229 194.216 18.4807 194.216 18.5501H195.36L195.256 19.0702H194.181C194.181 19.0933 194.169 19.1164 194.146 19.1395C194.146 19.1627 194.146 19.1973 194.146 19.2436H193.869C193.846 19.336 193.811 19.4285 193.765 19.521C193.742 19.5903 193.719 19.6712 193.696 19.7637H194.112C194.112 19.7868 194.089 19.8446 194.042 19.9371H193.349C193.303 20.0527 193.245 20.1682 193.175 20.2838C193.129 20.3994 193.071 20.515 193.002 20.6306H193.696L193.383 21.1507H193.696L193.349 21.6708H193.141C193.048 21.7864 192.944 21.902 192.829 22.0176C192.736 22.1332 192.632 22.2488 192.517 22.3644H192.239C192.216 22.3875 192.193 22.4106 192.17 22.4337C192.147 22.4568 192.112 22.4915 192.066 22.5377H190.575L190.401 22.7111H197.371C197.232 22.8267 197.094 22.9423 196.955 23.0579C196.816 23.1735 196.666 23.289 196.504 23.4046H196.123C195.892 23.5664 195.614 23.7398 195.291 23.9248H187.974C187.743 24.0635 187.5 24.1906 187.246 24.3062C186.992 24.3987 186.737 24.5027 186.483 24.6183H192.205C192.135 24.6414 192.054 24.6645 191.962 24.6876C191.892 24.7107 191.812 24.7454 191.719 24.7916H190.332C190.24 24.8148 190.147 24.8379 190.055 24.861C189.962 24.8841 189.87 24.9188 189.777 24.965H187.281C186.448 25.1962 185.593 25.3696 184.715 25.4852H185.269C184.9 25.5314 184.518 25.5661 184.125 25.5892C183.732 25.6123 183.339 25.6239 182.946 25.6239C182.507 25.6239 182.079 25.6123 181.663 25.5892C181.27 25.5661 180.877 25.5314 180.484 25.4852H179.929C179.005 25.3696 178.149 25.1962 177.363 24.965H179.86C179.768 24.9188 179.675 24.8841 179.583 24.861C179.513 24.8379 179.432 24.8148 179.34 24.7916H180.762L180.276 24.6183H174.555C174.324 24.5027 174.081 24.3987 173.826 24.3062C173.595 24.1906 173.364 24.0635 173.133 23.9248H180.484C180.345 23.8323 180.207 23.7514 180.068 23.682C179.929 23.5896 179.802 23.4971 179.687 23.4046H180.068C179.791 23.1966 179.525 22.9654 179.271 22.7111H172.266C172.243 22.6649 172.22 22.6302 172.197 22.6071C172.174 22.584 172.139 22.5609 172.093 22.5377H173.618C173.595 22.4915 173.561 22.4568 173.514 22.4337C173.491 22.4106 173.468 22.3875 173.445 22.3644H173.722C173.514 22.1332 173.318 21.902 173.133 21.6708H173.341L173.029 21.1507H172.717L172.405 20.6306H171.711L171.399 19.9371H172.127L172.058 19.7637H171.607C171.584 19.6712 171.561 19.5903 171.538 19.521C171.515 19.4285 171.48 19.336 171.434 19.2436H171.711L171.642 19.0702H172.717C172.694 18.9777 172.671 18.8968 172.648 18.8275C172.624 18.735 172.601 18.6425 172.578 18.5501H172.023C172 18.5038 171.989 18.446 171.989 18.3767H171.399C171.376 18.3304 171.365 18.2726 171.365 18.2033H171.399C171.399 18.1108 171.376 17.9952 171.33 17.8565H169.353L169.249 17.163H171.919C171.896 17.0706 171.885 16.9897 171.885 16.9203C171.885 16.8278 171.873 16.7354 171.85 16.6429H172.509C172.509 16.5736 172.509 16.5042 172.509 16.4348C172.509 16.3655 172.497 16.2961 172.474 16.2268V15.9494H167.966V15.776H168.972V15.4293H173.445V15.2559H172.474C172.474 15.1634 172.463 15.0825 172.439 15.0132C172.439 14.9207 172.439 14.8282 172.439 14.7357H169.769V14.0422H170.706V13.8689H172.162V13.6955H168.59V13.002H166.822V12.6552H172.439V12.4818H170.775V11.7883H171.295V11.4416H171.191V11.0948H172.439V10.4013H169.423V10.2279H176.08V10.0546C176.104 9.96209 176.115 9.88118 176.115 9.81183C176.115 9.71936 176.115 9.62689 176.115 9.53442H174.277C174.277 9.41884 174.277 9.30325 174.277 9.18767C174.3 9.07208 174.324 8.9565 174.347 8.84091H175.456C175.479 8.79468 175.491 8.73689 175.491 8.66754H168.313C168.336 8.6213 168.348 8.56351 168.348 8.49416C168.348 8.42481 168.359 8.36702 168.382 8.32078H174.693L174.867 7.62727H173.445L173.549 7.28052H171.226L171.295 7.10714H172.058C172.081 7.06091 172.104 7.00311 172.127 6.93376C172.151 6.86441 172.174 6.80662 172.197 6.76038H171.815L171.954 6.41363H172.127C172.174 6.32116 172.22 6.24025 172.266 6.1709C172.312 6.07843 172.347 5.98597 172.37 5.8935H172.405L172.717 5.37337H172.613C172.659 5.2809 172.705 5.19999 172.752 5.13064C172.821 5.03817 172.89 4.9457 172.96 4.85323H172.682C172.775 4.73765 172.867 4.62206 172.96 4.50648C173.052 4.36778 173.145 4.25219 173.237 4.15972H172.925C172.948 4.11349 172.971 4.07881 172.994 4.05569C173.017 4.03258 173.041 4.00946 173.064 3.98634H172.717L172.89 3.81297H172.821C172.867 3.76673 172.902 3.73206 172.925 3.70894C172.948 3.68582 172.971 3.66271 172.994 3.63959H172.37C172.416 3.59336 172.474 3.53556 172.543 3.46621C172.613 3.39686 172.682 3.33907 172.752 3.29284H173.584C173.699 3.20037 173.815 3.11946 173.931 3.05011C174.046 2.95764 174.162 2.86517 174.277 2.7727H173.896L174.173 2.59932H173.584C173.63 2.55309 173.676 2.51842 173.722 2.4953C173.769 2.47218 173.815 2.44906 173.861 2.42595H175.664C175.826 2.33348 175.988 2.25257 176.15 2.18322C176.312 2.09075 176.473 1.99828 176.635 1.90582H176.531C176.67 1.83646 176.809 1.77867 176.947 1.73244C177.086 1.66309 177.225 1.60529 177.363 1.55906H178.022C178.092 1.51283 178.161 1.47815 178.23 1.45503C178.323 1.43192 178.415 1.4088 178.508 1.38568H177.467C178.161 1.1314 178.901 0.958017 179.687 0.865549H180.623C181.524 0.726848 182.472 0.657497 183.466 0.657497C184.437 0.657497 185.373 0.726848 186.275 0.865549H185.373C186.136 0.958017 186.899 1.1314 187.662 1.38568H188.702C188.795 1.4088 188.876 1.43192 188.945 1.45503C189.037 1.47815 189.13 1.51283 189.222 1.55906H188.564C188.91 1.67465 189.199 1.79023 189.43 1.90582H189.534C189.719 1.99828 189.893 2.09075 190.055 2.18322C190.216 2.25257 190.378 2.33348 190.54 2.42595H188.772C188.818 2.44906 188.864 2.47218 188.91 2.4953C188.957 2.51842 189.003 2.55309 189.049 2.59932H189.639C189.685 2.62244 189.731 2.64556 189.777 2.66868C189.823 2.69179 189.858 2.72647 189.881 2.7727H190.263L190.956 3.29284H190.089L190.505 3.63959H191.13L191.338 3.81297H191.372L191.546 3.98634H191.892L192.066 4.15972H192.378C192.47 4.25219 192.563 4.36778 192.655 4.50648C192.748 4.62206 192.84 4.73765 192.933 4.85323H193.175C193.245 4.9457 193.303 5.03817 193.349 5.13064C193.418 5.19999 193.476 5.2809 193.522 5.37337H193.626C193.672 5.46583 193.719 5.5583 193.765 5.65077C193.811 5.72012 193.857 5.80103 193.904 5.8935H193.834C193.88 5.98597 193.927 6.07843 193.973 6.1709C194.019 6.24025 194.054 6.32116 194.077 6.41363H193.904L194.008 6.76038H194.389L194.493 7.10714H193.73C193.73 7.13026 193.73 7.15337 193.73 7.17649C193.753 7.19961 193.765 7.23428 193.765 7.28052H196.088C196.088 7.37298 196.111 7.48857 196.158 7.62727H193.002L193.106 8.32078H195.117L195.152 8.66754H199.348ZM183.432 7.62727H185.894C185.524 7.48857 185.108 7.41922 184.645 7.41922C184.183 7.41922 183.778 7.48857 183.432 7.62727ZM189.43 9.2917C189.407 9.19923 189.384 9.11832 189.361 9.04897C189.338 8.97962 189.303 8.91027 189.257 8.84091H190.089L189.985 8.66754H185.824C185.801 8.59819 185.766 8.54039 185.72 8.49416C185.674 8.42481 185.628 8.36702 185.581 8.32078H177.71C177.687 8.36702 177.652 8.42481 177.606 8.49416C177.583 8.54039 177.548 8.59819 177.502 8.66754H184.68L184.611 8.84091H183.501C183.455 8.93338 183.42 9.04897 183.397 9.18767C183.374 9.30325 183.351 9.41884 183.328 9.53442H189.534L189.43 9.2917ZM185.339 16.6429H180.9L181.004 17.163H178.334C178.381 17.3017 178.427 17.4289 178.473 17.5445C178.519 17.6369 178.577 17.741 178.646 17.8565H180.623C180.669 17.9259 180.715 17.9952 180.762 18.0646C180.808 18.1108 180.854 18.1571 180.9 18.2033H180.831L181.004 18.3767H181.594C181.64 18.3998 181.686 18.4345 181.733 18.4807C181.779 18.5038 181.825 18.5269 181.871 18.5501H182.426C182.819 18.7581 183.293 18.8621 183.848 18.8621C184.403 18.8621 184.865 18.7581 185.235 18.5501H184.09L184.368 18.3767H184.576L184.784 18.2033H183.882C183.929 18.1571 183.975 18.1108 184.021 18.0646C184.09 17.9952 184.137 17.9259 184.16 17.8565H184.541C184.68 17.6485 184.796 17.4173 184.888 17.163H185.131L185.2 16.9897C185.246 16.851 185.293 16.7354 185.339 16.6429ZM197.212 1.90582C197.235 1.83646 197.246 1.77867 197.246 1.73244C197.269 1.66309 197.292 1.60529 197.316 1.55906H193.501C193.548 1.48971 193.594 1.43192 193.64 1.38568C193.686 1.31633 193.732 1.25854 193.779 1.21231H197.801C197.986 1.0736 198.182 1.00425 198.391 1.00425H205.326C205.58 1.00425 205.776 1.0736 205.915 1.21231H201.893C201.939 1.25854 201.985 1.31633 202.031 1.38568C202.101 1.43192 202.147 1.48971 202.17 1.55906H205.95C205.996 1.69776 206.019 1.81335 206.019 1.90582H207.961C207.984 1.90582 207.996 1.91737 207.996 1.94049V2.25257H203.314V2.94608H205.256V3.46621H205.048V4.15972H203.8V4.85323H206.609V5.02661H206.817V5.72012H206.955V6.41363H206.713V7.10714H206.539V7.97403H207.129V8.66754H206.47V9.36105H206.609V9.53442H209.071V10.2279H210.354V10.5747H205.014V10.9214H206.782V11.615H205.326V12.3085H206.574V12.6552H206.817V13.1754H211.463V13.5221H214.688V14.2156H205.88V13.5221H202.656V13.1754H198.009V12.6552H197.766V12.3085H196.518V11.615H197.974V10.9214H196.206V10.5747H201.546V10.2279H200.263V9.53442H197.801V9.36105H197.662V8.66754H198.321V7.97403H197.732V7.10714H197.905V6.41363H198.148V5.72012H198.009V5.02661H197.801V4.85323H194.992V4.15972H196.241V3.46621H196.449V2.94608H194.507V2.25257H199.188V1.90582H197.212ZM220.271 20.6306H210.804V20.804H211.498V21.3241H216.422V21.4975H214.896V22.191H217.323V22.7111H217.67V22.8845H217.427V23.0579H217.323V23.7514H217.393V24.2715H217.254V24.4449H217.081C217.058 24.4911 217.046 24.5489 217.046 24.6183H217.427C217.358 24.8494 217.231 25.0228 217.046 25.1384H216.665C216.549 25.2309 216.387 25.2771 216.179 25.2771H198.703C198.495 25.2771 198.333 25.2309 198.217 25.1384H198.564C198.356 25.0228 198.217 24.8494 198.148 24.6183H197.766C197.766 24.572 197.755 24.5374 197.732 24.5142C197.732 24.4911 197.732 24.468 197.732 24.4449H197.905V24.2715H198.044V23.7514H197.974V23.0579H198.078V22.8845H198.321V22.7111H197.974V22.191H195.547V21.4975H197.073V21.3241H192.149V20.804H191.455V20.6306H200.922V20.1105H197.073V19.5903H200.818V19.4169H192.634V18.8968H193.813V18.7234H198.321V18.5501H196.726V18.0299H199.431V17.3364H196.691V16.9897H198.945V16.8163H197.905V16.2961H198.911V15.9494H197.628V15.6026H200.644V15.0825H201.511V14.7357H196.761V14.2156H205.568V14.7357H210.319V15.0825H209.452V15.6026H206.435V15.9494H207.718V16.2961H206.713V16.8163H207.753V16.9897H205.499V17.3364H208.238V18.0299H205.534V18.1686H215.139C215.462 18.1686 215.717 18.2958 215.902 18.5501H217.497L217.601 18.7234H213.093L213.162 18.8968H211.949C211.972 18.943 211.983 19.0124 211.983 19.1049V19.4169H220.167V19.5903H216.422V20.1105H220.271V20.6306ZM242.046 19.2436H244.786V19.7637H239.515V20.4572H242.913V21.1507H239.931V21.8442H240.312V22.3644H240.07V22.7111H239.341V23.0579H239.307V23.4046H240.035V24.0981H241.041V24.3409C241.041 24.3871 241.029 24.4218 241.006 24.4449H234.834C234.811 24.4911 234.799 24.5489 234.799 24.6183H237.192C237.122 24.8494 236.995 25.0228 236.81 25.1384H236.151C236.036 25.2309 235.874 25.2771 235.666 25.2771H217.6C217.415 25.2771 217.242 25.2309 217.08 25.1384H217.739C217.577 25.0228 217.45 24.8494 217.357 24.6183H214.93C214.907 24.572 214.895 24.5142 214.895 24.4449H221.102V24.0981H220.097V23.4046H219.368V23.0579H219.403V22.7111H220.131V22.3644H220.374V21.8442H219.993V21.1507H222.975V20.4572H219.576V19.7637H224.847V19.2436H222.108V18.8968H222.905V18.5501H223.252V18.2033H219.403V17.8565H218.502V17.3364H221.726V17.163H219.16V16.8163H219.923V16.4695H220.478V15.9494H220.409V15.2559H220.062V14.5624H219.542V14.2156H219.958V13.5221H219.576V13.1754H220.131V12.6552H220.27V12.1351H220.894V11.9617H220.305V11.2682H219.785V10.7481H219.923V10.2279H219.993V9.53442H220.513V8.84091H219.75V8.1474H219.854V7.4539H220.825V6.93376H220.305V6.41363H220.027V6.24025H221.484V5.72012H224.05V5.37337H223.009V5.02661H219.646V4.85323H220.027V4.3331H220.062V3.81297H220.166V3.11946H220.131V2.25257H220.062V1.94049C220.062 1.84802 220.073 1.77867 220.097 1.73244H219.75C219.842 1.24698 220.143 1.00425 220.651 1.00425H238.44C238.972 1.00425 239.272 1.24698 239.341 1.73244H239.688C239.711 1.77867 239.723 1.84802 239.723 1.94049V2.25257H239.792V3.11946H239.827V3.81297H239.723V4.3331H239.688V4.85323H239.307V5.02661H242.67V5.37337H243.711V5.72012H241.145V6.24025H239.688V6.41363H239.966V6.93376H240.486C240.44 7.16493 240.359 7.33831 240.243 7.4539H239.272C239.11 7.66195 238.879 7.76597 238.579 7.76597H228.176V8.1474H228.072V8.84091H228.835V9.53442H228.315V9.95053H237.954C238.209 9.95053 238.428 10.043 238.613 10.2279H238.544C238.66 10.3435 238.74 10.5169 238.787 10.7481H238.683V11.2682H239.203V11.9617H239.792V12.1351H239.168V12.6552H239.029V13.1754H238.475V13.5221H238.856V14.2156H238.44V14.5624H238.96V15.2559H239.307V15.3946C239.307 15.6489 239.249 15.8338 239.133 15.9494H239.203C239.018 16.2037 238.764 16.3308 238.44 16.3308H228.8V16.4695H228.245V16.8163H227.482V17.163H230.048V17.3364H226.824V17.8565H227.725V18.2033H231.574V18.5154H242.254C242.37 18.5154 242.462 18.5269 242.532 18.5501H242.15C242.381 18.6194 242.555 18.735 242.67 18.8968H241.873C241.965 19.0355 242.023 19.1511 242.046 19.2436Z" fill="white"/>
<defs>
<linearGradient id="paint0_linear_221_581" x1="191.959" y1="13.7771" x2="-32.0051" y2="13.7771" gradientUnits="userSpaceOnUse">
<stop stop-color="#D100E4"/>
<stop offset="1" stop-color="#DFD600"/>
</linearGradient>
</defs>
</svg>
