<svg width="22" height="22" viewBox="0 0 22 22" fill="none" xmlns="http://www.w3.org/2000/svg">
<mask id="mask0_214_418" style="mask-type:alpha" maskUnits="userSpaceOnUse" x="0" y="0" width="22" height="22">
<rect width="22" height="22" fill="#D9D9D9"/>
</mask>
<g mask="url(#mask0_214_418)">
<path d="M11 20.1667C9.74726 20.1667 8.56324 19.9261 7.44796 19.4448C6.33268 18.9636 5.35872 18.3066 4.52608 17.474C3.69344 16.6414 3.0365 15.6674 2.55525 14.5521C2.074 13.4368 1.83337 12.2528 1.83337 11C1.83337 9.73199 2.074 8.54414 2.55525 7.4365C3.0365 6.32886 3.69344 5.35872 4.52608 4.52608C5.35872 3.69344 6.33268 3.0365 7.44796 2.55525C8.56324 2.074 9.74726 1.83337 11 1.83337C12.2681 1.83337 13.4559 2.074 14.5636 2.55525C15.6712 3.0365 16.6414 3.69344 17.474 4.52608C18.3066 5.35872 18.9636 6.32886 19.4448 7.4365C19.9261 8.54414 20.1667 9.73199 20.1667 11V12.3292C20.1667 13.2306 19.8573 13.9983 19.2386 14.6323C18.6198 15.2664 17.8598 15.5834 16.9584 15.5834C16.4084 15.5834 15.8966 15.4612 15.423 15.2167C14.9493 14.9723 14.5598 14.6514 14.2542 14.2542C13.8417 14.6667 13.3566 14.9914 12.799 15.2282C12.2414 15.465 11.6417 15.5834 11 15.5834C9.73199 15.5834 8.65108 15.1365 7.75733 14.2427C6.86358 13.349 6.41671 12.2681 6.41671 11C6.41671 9.73199 6.86358 8.65108 7.75733 7.75733C8.65108 6.86358 9.73199 6.41671 11 6.41671C12.2681 6.41671 13.349 6.86358 14.2427 7.75733C15.1365 8.65108 15.5834 9.73199 15.5834 11V12.3292C15.5834 12.7723 15.7209 13.1198 15.9959 13.3719C16.2709 13.624 16.5917 13.75 16.9584 13.75C17.325 13.75 17.6459 13.624 17.9209 13.3719C18.1959 13.1198 18.3334 12.7723 18.3334 12.3292V11C18.3334 8.99865 17.6115 7.27608 16.1677 5.83233C14.724 4.38858 13.0014 3.66671 11 3.66671C8.99865 3.66671 7.27608 4.38858 5.83233 5.83233C4.38858 7.27608 3.66671 8.99865 3.66671 11C3.66671 13.0014 4.38858 14.724 5.83233 16.1677C7.27608 17.6115 8.99865 18.3334 11 18.3334H15.5834V20.1667H11ZM11 13.75C11.7639 13.75 12.4132 13.4827 12.948 12.948C13.4827 12.4132 13.75 11.7639 13.75 11C13.75 10.2362 13.4827 9.58685 12.948 9.05212C12.4132 8.5174 11.7639 8.25004 11 8.25004C10.2362 8.25004 9.58685 8.5174 9.05212 9.05212C8.5174 9.58685 8.25004 10.2362 8.25004 11C8.25004 11.7639 8.5174 12.4132 9.05212 12.948C9.58685 13.4827 10.2362 13.75 11 13.75Z" fill="white"/>
</g>
</svg>
