<svg width="91" height="83" viewBox="0 0 91 83" fill="none" xmlns="http://www.w3.org/2000/svg">
<path d="M32.9265 0C38.3582 0 42.7703 4.06895 42.7703 9.07812V73.9219C42.7703 78.9311 38.3582 83 32.9265 83C27.8464 83 23.6628 79.4498 23.1355 74.8783C22.2214 75.1053 21.2546 75.2188 20.2703 75.2188C14.0652 75.2188 9.02026 70.5662 9.02026 64.8438C9.02026 63.6441 9.24878 62.477 9.65308 61.407C4.34448 59.559 0.582764 54.8254 0.582764 49.2813C0.582764 44.11 3.86987 39.6357 8.63354 37.5607C7.10425 35.7938 6.20776 33.5566 6.20776 31.125C6.20776 26.1482 10.0046 21.9982 15.0671 20.977C14.7859 20.0854 14.6453 19.1289 14.6453 18.1562C14.6453 13.3092 18.2664 9.22402 23.1355 8.08926C23.6628 3.5502 27.8464 0 32.9265 0ZM58.239 0C63.3191 0 67.4851 3.5502 68.03 8.08926C72.9167 9.22402 76.5203 13.293 76.5203 18.1562C76.5203 19.1289 76.3796 20.0854 76.0984 20.977C81.1609 21.982 84.9578 26.1482 84.9578 31.125C84.9578 33.5566 84.0613 35.7938 82.532 37.5607C87.2957 39.6357 90.5828 44.11 90.5828 49.2813C90.5828 54.8254 86.821 59.559 81.5125 61.407C81.9167 62.477 82.1453 63.6441 82.1453 64.8438C82.1453 70.5662 77.1003 75.2188 70.8953 75.2188C69.9109 75.2188 68.9441 75.1053 68.03 74.8783C67.5027 79.4498 63.3191 83 58.239 83C52.8074 83 48.3953 78.9311 48.3953 73.9219V9.07812C48.3953 4.06895 52.8074 0 58.239 0Z" fill="url(#paint0_linear_16_37)"/>
<defs>
<linearGradient id="paint0_linear_16_37" x1="-14.7148" y1="66.7152" x2="97.7753" y2="65.1736" gradientUnits="userSpaceOnUse">
<stop stop-color="#5F00AB"/>
<stop offset="1" stop-color="#14849C"/>
</linearGradient>
</defs>
</svg>
