<svg width="143" height="122" viewBox="0 0 143 122" fill="none" xmlns="http://www.w3.org/2000/svg">
<g filter="url(#filter0_d_16_33)">
<path d="M69.9425 70.6369V70.9111H65.2662C62.6797 70.9111 60.59 72.9747 60.59 75.5289V84.7645V88.2279C60.59 91.417 57.9742 94.0001 54.7446 94.0001H51.2374H46.5758C46.3566 94.0001 46.1374 93.9857 45.9182 93.9713C45.7428 93.9857 45.5675 94.0001 45.3921 94.0001H43.054C39.8244 94.0001 37.2087 91.417 37.2087 88.2279V72.0656C37.2087 71.9357 37.2087 71.7914 37.2233 71.6615V61.6178H32.5324C29.902 61.6178 27.8561 59.5975 27.8561 56.9855C27.8561 55.6868 28.2945 54.5323 29.3175 53.5222L66.786 21.2697C67.8089 20.2595 68.978 20.1152 70.0009 20.1152C71.0239 20.1152 72.1929 20.4038 73.0697 21.1254L93.2215 38.6009C91.424 38.4566 89.5681 39.0338 88.136 40.2893C82.9629 44.8494 78.5497 50.0588 75.3786 55.124C72.3244 60.016 69.9425 65.5573 69.9425 70.6369ZM94.1275 43.7526C97.0063 46.3213 99.7098 49.092 102.238 52.0791C103.392 50.6505 104.693 49.092 106.11 47.8221C106.929 47.0861 108.215 47.0861 109.033 47.8221C112.643 51.0978 115.697 55.427 117.86 59.5253C119.978 63.5659 121.396 68.0105 121.396 70.9255C121.381 83.6101 110.962 94.0001 98 94.0001C84.8919 94.0001 74.6187 83.5956 74.6187 70.94C74.6187 67.1303 76.4746 62.1806 79.3534 57.5772C82.2761 52.9017 86.3824 48.0385 91.2487 43.7526C91.6578 43.3919 92.1839 43.2043 92.71 43.2187C93.2215 43.2187 93.7329 43.4063 94.1421 43.7671L94.1275 43.7526ZM105.307 82.5999C109.691 79.5695 110.86 73.5086 108.229 68.7465C107.937 68.1693 107.645 67.5921 107.206 67.0148L101.946 73.0757C101.946 73.0757 93.4699 62.397 92.8854 61.6755C88.5014 67.0148 86.3094 70.0453 86.3094 73.5086C86.3094 80.5796 91.5702 84.7645 98.1462 84.7645C100.777 84.7645 103.115 84.043 105.307 82.5999Z" fill="url(#paint0_linear_16_33)"/>
</g>
<defs>
<filter id="filter0_d_16_33" x="0.85614" y="0.115234" width="141.54" height="121.885" filterUnits="userSpaceOnUse" color-interpolation-filters="sRGB">
<feFlood flood-opacity="0" result="BackgroundImageFix"/>
<feColorMatrix in="SourceAlpha" type="matrix" values="0 0 0 0 0 0 0 0 0 0 0 0 0 0 0 0 0 0 127 0" result="hardAlpha"/>
<feOffset dx="-3" dy="4"/>
<feGaussianBlur stdDeviation="12"/>
<feComposite in2="hardAlpha" operator="out"/>
<feColorMatrix type="matrix" values="0 0 0 0 0 0 0 0 0 0 0 0 0 0 0 0 0 0 0.23 0"/>
<feBlend mode="normal" in2="BackgroundImageFix" result="effect1_dropShadow_16_33"/>
<feBlend mode="normal" in="SourceGraphic" in2="effect1_dropShadow_16_33" result="shape"/>
</filter>
<linearGradient id="paint0_linear_16_33" x1="11.9569" y1="79.5037" x2="128.863" y2="77.6332" gradientUnits="userSpaceOnUse">
<stop stop-color="#5F00AB"/>
<stop offset="1" stop-color="#14849C"/>
</linearGradient>
</defs>
</svg>
