<svg width="127" height="77" viewBox="0 0 127 77" fill="none" xmlns="http://www.w3.org/2000/svg">
<path d="M63.911 4.42323L44.8878 20.0387C41.7238 22.628 41.1146 27.2887 43.5121 30.6149C46.0473 34.1603 50.9799 34.8574 54.3797 32.1685L73.8943 16.7921C75.2699 15.7165 77.2351 15.9556 78.316 17.3498C79.3969 18.744 79.1414 20.7358 77.7657 21.8313L73.6584 25.0579L100.975 50.5525V12.948H100.837L100.071 12.45L85.8034 3.18833C82.7967 1.2364 79.2789 0.200684 75.7023 0.200684C71.4181 0.200684 67.2519 1.69451 63.911 4.42323ZM68.3917 29.2008L58.2315 37.2077C52.0411 42.1074 43.0601 40.8327 38.4222 34.3794C34.0595 28.3045 35.16 19.8196 40.9181 15.0991L57.2686 1.69451C54.989 0.718543 52.5324 0.220601 50.0366 0.220601C46.342 0.200683 42.7457 1.31607 39.6603 3.38751L25.5108 12.948V57.5635H31.0527L49.0147 74.1749C52.8665 77.7401 58.8211 77.4613 62.3388 73.5574C63.4197 72.3424 64.1468 70.9283 64.5202 69.4544L67.8611 72.5615C71.6932 76.1268 77.6675 75.8679 81.1852 71.9839C82.0695 71.0079 82.7181 69.8726 83.1308 68.6975C86.9433 71.2868 92.1314 70.749 95.3347 67.2037C98.8524 63.3197 98.5969 57.2648 94.7648 53.6995L68.3917 29.2008ZM3.50047 12.948C1.77109 12.948 0.35614 14.3821 0.35614 16.1348V57.5635C0.35614 61.089 3.16639 63.9372 6.64481 63.9372H12.9335C16.4119 63.9372 19.2221 61.089 19.2221 57.5635V12.948H3.50047ZM9.78914 51.1899C10.6231 51.1899 11.4228 51.5256 12.0125 52.1233C12.6022 52.7209 12.9335 53.5315 12.9335 54.3767C12.9335 55.2219 12.6022 56.0325 12.0125 56.6301C11.4228 57.2278 10.6231 57.5635 9.78914 57.5635C8.95521 57.5635 8.15544 57.2278 7.56576 56.6301C6.97609 56.0325 6.64481 55.2219 6.64481 54.3767C6.64481 53.5315 6.97609 52.7209 7.56576 52.1233C8.15544 51.5256 8.95521 51.1899 9.78914 51.1899ZM107.264 12.948V57.5635C107.264 61.089 110.074 63.9372 113.552 63.9372H119.841C123.319 63.9372 126.13 61.089 126.13 57.5635V16.1348C126.13 14.3821 124.715 12.948 122.985 12.948H107.264ZM113.552 54.3767C113.552 53.5315 113.883 52.7209 114.473 52.1233C115.063 51.5256 115.863 51.1899 116.697 51.1899C117.53 51.1899 118.33 51.5256 118.92 52.1233C119.51 52.7209 119.841 53.5315 119.841 54.3767C119.841 55.2219 119.51 56.0325 118.92 56.6301C118.33 57.2278 117.53 57.5635 116.697 57.5635C115.863 57.5635 115.063 57.2278 114.473 56.6301C113.883 56.0325 113.552 55.2219 113.552 54.3767Z" fill="url(#paint0_linear_16_35)"/>
<defs>
<linearGradient id="paint0_linear_16_35" x1="-21.022" y1="61.6723" x2="136.143" y2="58.4057" gradientUnits="userSpaceOnUse">
<stop stop-color="#5F00AB"/>
<stop offset="1" stop-color="#14849C"/>
</linearGradient>
</defs>
</svg>
