<svg width="34" height="34" viewBox="0 0 34 34" fill="none" xmlns="http://www.w3.org/2000/svg">
<mask id="mask0_213_371" style="mask-type:alpha" maskUnits="userSpaceOnUse" x="0" y="0" width="34" height="34">
<rect width="34" height="34" fill="#D9D9D9"/>
</mask>
<g mask="url(#mask0_213_371)">
<path d="M17 31.1665C14.2612 31.1665 11.9237 30.1984 9.98754 28.2623C8.05143 26.3262 7.08337 23.9887 7.08337 21.2498V12.7498C7.08337 10.0109 8.05143 7.67341 9.98754 5.7373C11.9237 3.80119 14.2612 2.83313 17 2.83313C19.7389 2.83313 22.0764 3.80119 24.0125 5.7373C25.9487 7.67341 26.9167 10.0109 26.9167 12.7498V21.2498C26.9167 23.9887 25.9487 26.3262 24.0125 28.2623C22.0764 30.1984 19.7389 31.1665 17 31.1665ZM18.4167 12.7498H24.0834C24.0834 11.0498 23.5462 9.55049 22.4719 8.25188C21.3976 6.95327 20.0459 6.13869 18.4167 5.80813V12.7498ZM9.91671 12.7498H15.5834V5.80813C13.9542 6.13869 12.6025 6.95327 11.5282 8.25188C10.4539 9.55049 9.91671 11.0498 9.91671 12.7498ZM17 28.3331C18.9598 28.3331 20.6302 27.6425 22.0115 26.2613C23.3927 24.88 24.0834 23.2095 24.0834 21.2498V15.5831H9.91671V21.2498C9.91671 23.2095 10.6073 24.88 11.9886 26.2613C13.3698 27.6425 15.0403 28.3331 17 28.3331Z" fill="#F9F9F9"/>
</g>
</svg>
