<svg width="1875" height="273" viewBox="0 0 1875 273" fill="none" xmlns="http://www.w3.org/2000/svg">
<path d="M281.71 203.222H311.575V208.892H254.114V216.453H291.161V224.014H258.65V231.574H262.809V237.245H260.162V241.025H252.224V244.806H251.846V248.586H259.784V256.147H270.747V258.793C270.747 259.297 270.621 259.675 270.369 259.927H203.079C202.827 260.431 202.701 261.061 202.701 261.817H228.785C228.029 264.338 226.643 266.228 224.627 267.488H217.444C216.184 268.496 214.42 269 212.152 269H15.1954C13.1792 269 11.289 268.496 9.52483 267.488H16.7075C14.9433 266.228 13.5572 264.338 12.5491 261.817H-13.9134C-14.1654 261.313 -14.2914 260.683 -14.2914 259.927H53.3769V256.147H42.4139V248.586H34.4752V244.806H34.8532V241.025H42.7919V237.245H45.4382V231.574H41.2798V224.014H73.7908V216.453H36.7434V208.892H94.2048V203.222H64.34V199.441H73.0348V195.661H76.8151V191.881H34.8532V188.1H25.0243V182.43H60.1816V180.54H32.207V176.759H40.5237V172.979H46.5723V167.308H45.8162V159.748H42.0359V152.187H36.3653V148.407H40.9018V140.846H36.7434V137.066H42.7919V131.395H44.3041V125.725H51.1087V123.834H44.6821V116.274H39.0116V110.603H40.5237V104.933H41.2798V97.3719H46.9503V89.8112H38.6336V82.2505H39.7677V74.6898H50.3527V69.0193H44.6821V63.3488H41.6578V61.4586H57.5353V55.7881H85.5099V52.0077H74.1689V48.2273H37.4994V46.3372H41.6578V40.6666H42.0359V34.9961H43.17V27.4354H42.7919V17.9845H42.0359V14.5822C42.0359 13.5741 42.1619 12.818 42.4139 12.314H38.6336C39.6416 7.0215 42.918 4.37524 48.4625 4.37524H242.395C248.191 4.37524 251.467 7.0215 252.224 12.314H256.004C256.256 12.818 256.382 13.5741 256.382 14.5822V17.9845H257.138V27.4354H257.516V34.9961H256.382V40.6666H256.004V46.3372H251.846V48.2273H288.515V52.0077H299.856V55.7881H271.881V61.4586H256.004V63.3488H259.028V69.0193H264.699C264.195 71.5395 263.313 73.4297 262.052 74.6898H251.467C249.703 76.958 247.183 78.0922 243.907 78.0922H130.496V82.2505H129.362V89.8112H137.679V97.3719H132.008V101.908H237.102C239.874 101.908 242.269 102.916 244.285 104.933H243.529C244.789 106.193 245.671 108.083 246.175 110.603H245.041V116.274H250.711V123.834H257.138V125.725H250.333V131.395H248.821V137.066H242.773V140.846H246.931V148.407H242.395V152.187H248.065V159.748H251.846V161.26C251.846 164.032 251.215 166.048 249.955 167.308H250.711C248.695 170.081 245.923 171.467 242.395 171.467H137.301V172.979H131.252V176.759H122.935V180.54H150.91V182.43H115.753V188.1H125.582V191.881H167.544V195.283H283.978C285.239 195.283 286.247 195.409 287.003 195.661H282.844C285.365 196.417 287.255 197.677 288.515 199.441H279.82C280.828 200.954 281.458 202.214 281.71 203.222ZM527.052 38.7765H563.722L561.453 42.5568H553.893L550.49 48.2273H512.309L510.041 52.0077H515.333L511.553 57.6782H516.467L511.553 65.2389H505.882L502.48 70.9095H516.089L513.821 74.6898H507.394L504.748 78.4702H502.102L500.968 80.3604H496.053L491.517 87.9211H488.115L484.334 93.5916H488.871L486.602 97.3719H488.871L484.334 104.933H453.335L449.555 110.603H450.311L445.397 118.164H479.042L476.774 121.944H485.846L484.712 123.834H483.578L480.932 127.615H486.224L483.956 131.395H453.335L452.579 132.529L454.091 135.175H479.798L484.712 142.736H477.53L479.798 146.517H477.908L479.042 148.407H476.396L480.176 154.077H487.737L488.871 155.967H501.724L502.858 157.858H484.334L486.981 161.638H489.627L494.541 169.199H491.895L496.809 176.759H490.383L491.895 178.65L495.675 184.32H488.115L489.627 186.21H491.139L494.919 191.881H505.126L506.26 193.771H510.041L511.175 195.661H519.87L524.784 203.222H523.65L527.43 208.892H513.065L514.199 210.783H518.735L522.516 216.453H511.175L513.443 220.233H503.236L506.638 225.904H536.503L540.284 231.574H536.881L539.527 235.355H534.991L539.905 242.916H541.796L544.442 246.696H547.088L548.222 248.586H543.686L548.6 256.147H551.247L551.625 256.525C552.129 257.533 552.381 258.415 552.381 259.171C552.633 259.675 552.759 260.179 552.759 260.683V261.817H549.734C549.23 264.086 548.096 265.976 546.332 267.488H545.576C544.316 268.496 542.678 269 540.662 269H455.604C454.091 269 452.705 268.874 451.445 268.622C450.437 268.118 449.303 267.74 448.043 267.488H448.799C445.775 266.228 443.506 264.338 441.994 261.817H445.019C444.767 261.313 444.389 260.809 443.885 260.305L441.238 256.147H438.214L433.3 248.586H438.214L437.08 246.696H434.056L431.787 242.916H429.519L424.605 235.355H429.141L426.873 231.574H430.275L426.495 225.904H396.63L392.85 220.233H403.435L400.788 216.453H412.508L408.727 210.783H404.191L403.435 209.648L402.679 210.783H400.032L396.63 216.453H385.667L383.399 220.233H390.96L387.179 225.904H382.643L379.24 231.574H392.472L390.203 235.355H392.094L387.557 242.916H392.85L390.203 246.696H383.021L381.887 248.586H383.399L378.484 256.147H379.24L376.594 260.305C376.09 260.809 375.712 261.313 375.46 261.817H372.814C371.302 264.338 369.034 266.228 366.009 267.488H364.497C363.489 267.74 362.355 268.118 361.095 268.622C359.835 268.874 358.449 269 356.936 269H274.525C272.508 269 270.996 268.496 269.988 267.488H271.122C269.358 265.976 268.224 264.086 267.72 261.817H270.366V260.683C270.366 260.179 270.366 259.675 270.366 259.171C270.618 258.415 270.996 257.533 271.5 256.525L271.878 256.147H271.122L276.037 248.586H274.903L276.037 246.696H283.219L285.488 242.916H280.195L285.11 235.355H283.219L285.866 231.574H272.256L276.037 225.904H280.573L284.354 220.233H276.793L279.061 216.453H290.402L293.804 210.783H296.451L297.585 208.892H311.95L315.731 203.222H316.487L321.401 195.661H313.084L314.218 193.771H310.438L311.572 191.881H301.365L305.146 186.21H303.633L304.767 184.32H311.95L315.731 178.65H315.352L316.865 176.759H322.913L327.828 169.199H330.474L335.388 161.638H332.742L335.01 157.858H353.534L355.046 155.967H342.193L343.327 154.077H335.766L339.547 148.407H341.815L343.327 146.517H345.217L347.864 142.736H355.046L359.961 135.175H334.254L335.388 133.663L333.876 131.395H364.875L362.229 127.615H357.314L354.668 123.834H356.18L355.046 121.944H345.595L343.327 118.164H309.682L305.146 110.603H304.389L300.987 104.933H331.986L327.45 97.3719H324.803L322.535 93.5916H317.999L314.596 87.9211H317.999L313.462 80.3604H318.377L317.243 78.4702H319.889L317.621 74.6898H324.047L321.779 70.9095H307.792L304.389 65.2389H310.06L305.524 57.6782H302.121L298.341 52.0077H315.352L313.084 48.2273H294.182L290.78 42.5568H287L284.732 38.7765H306.28L304.011 34.9961H298.719L296.451 31.2158H287.378L285.11 27.4354H285.488L284.354 25.5452H287L282.463 17.9845H268.476L267.72 16.8504C267.72 16.5984 267.72 16.4724 267.72 16.4724C267.468 16.4724 267.342 16.3464 267.342 16.0943H277.549C277.297 15.5903 277.045 15.0863 276.793 14.5822C276.793 14.0782 276.793 13.4481 276.793 12.692V12.314H277.171C277.675 9.79376 278.557 7.90359 279.817 6.64347H276.793C278.305 5.13132 280.195 4.37524 282.463 4.37524H364.497C366.261 4.37524 367.899 4.62727 369.412 5.13133C370.924 5.63537 372.184 6.13942 373.192 6.64347H376.594C378.106 7.39953 379.366 8.28161 380.375 9.28971C381.383 10.2978 382.139 11.3059 382.643 12.314H382.265C382.769 13.3221 383.021 13.8261 383.021 13.8261L384.533 16.0943H374.326L375.082 17.9845H389.069L393.606 25.5452H390.96L392.094 27.4354H391.716L393.984 31.2158H402.679L404.947 34.9961H410.239L412.13 38.7765H390.582L392.85 42.5568H396.63L400.032 48.2273H447.665L451.067 42.5568H458.628L460.896 38.7765H424.227L426.495 34.9961H433.3L435.946 31.2158H420.446L423.093 27.4354H431.409L432.543 25.5452H429.897L434.812 17.9845H440.86L441.994 16.0943H438.592L440.104 13.8261C440.104 13.8261 440.356 13.3221 440.86 12.314H441.994C442.498 11.3059 443.254 10.2978 444.263 9.28971C445.271 8.28161 446.531 7.39953 448.043 6.64347H439.348C440.608 6.13942 441.994 5.63537 443.506 5.13133C445.019 4.62727 446.657 4.37524 448.421 4.37524H526.674C529.194 4.37524 530.959 5.13132 531.967 6.64347H540.662C542.426 8.40763 543.308 10.2978 543.308 12.314H542.552V12.692C542.552 14.2042 542.3 15.3383 541.796 16.0943H545.198C545.198 16.3464 545.072 16.4724 544.82 16.4724C544.82 16.4724 544.82 16.5984 544.82 16.8504L544.064 17.9845H538.015L533.101 25.5452H535.369L534.235 27.4354H525.918L523.65 31.2158H538.771L536.503 34.9961H529.699L527.052 38.7765ZM403.813 52.0077L407.215 57.6782H408.727L412.13 52.0077H403.813ZM412.13 59.9464L413.264 57.6782H410.617L412.13 59.9464ZM805.384 99.2621H801.225V104.933H809.92V106.823H806.518L805.384 114.384H809.542C809.29 114.888 809.164 115.518 809.164 116.274H803.872C803.62 117.534 803.368 118.794 803.116 120.054C802.864 121.314 802.485 122.574 801.981 123.834C801.981 124.843 801.729 126.103 801.225 127.615H797.445L795.177 133.285H794.799C794.547 134.545 794.043 135.806 793.287 137.066C792.531 138.326 791.901 139.586 791.396 140.846H792.153L791.018 142.736H794.421C793.665 143.996 792.909 145.256 792.153 146.517C791.396 147.777 790.514 149.037 789.506 150.297H792.153C791.144 151.557 790.01 152.817 788.75 154.077C787.742 155.337 786.608 156.597 785.348 157.858H784.592C783.08 159.118 781.568 160.378 780.055 161.638C778.795 162.898 777.283 164.158 775.519 165.418H773.251C771.235 166.678 769.092 167.939 766.824 169.199C764.808 170.459 762.666 171.719 760.398 172.979H761.532C761.028 173.231 760.398 173.483 759.641 173.735C758.885 173.987 758.255 174.365 757.751 174.869H757.373C752.585 177.137 747.292 179.028 741.496 180.54C738.724 181.296 735.825 182.052 732.801 182.808C729.777 183.312 726.752 183.816 723.728 184.32H723.35C713.269 185.832 702.558 186.588 691.217 186.588H664.755V189.991H667.401V197.551H671.937V199.441H662.864V203.222H666.267V208.892H656.816V210.783H668.535V218.343H665.133V227.794H666.645V233.465H662.108V241.025H660.218V244.806H672.693V250.476H662.108V258.037H669.291V258.793C669.291 260.053 669.165 261.061 668.913 261.817H666.645C666.645 262.069 666.393 262.699 665.889 263.708H667.023C666.771 264.212 666.267 264.842 665.511 265.598H665.889C664.881 266.606 664.125 267.236 663.621 267.488H663.999C662.738 268.496 660.974 269 658.706 269H580.831C578.563 269 576.798 268.496 575.538 267.488H574.782C574.278 267.236 573.522 266.606 572.514 265.598C572.262 265.094 572.01 264.716 571.758 264.464C571.506 264.212 571.38 263.96 571.38 263.708H570.246C569.742 262.699 569.49 262.069 569.49 261.817H571.38C571.128 261.061 571.002 260.053 571.002 258.793V258.037H563.819V250.476H574.404V244.806H561.929V241.025H563.819V233.465H568.356V227.794H566.843V218.343H570.246V210.783H558.527V208.892H567.978V203.222H564.575V199.441H573.648V197.551H569.112V189.991H566.465V184.32H566.843V172.979H566.087V165.418H568.356V157.858H569.49V150.297H566.843V142.736H563.441V140.846H562.685V133.285H563.063V127.615H566.843V116.274H565.709V114.384H564.575V106.823H568.734V104.933H567.221V99.2621H568.734V95.4818H568.356V91.7014H557.771V84.1407H515.809V78.4702H535.088V70.9095H569.49V67.1291H555.124V59.5684H546.43V53.8979H552.1V52.0077H544.161V44.447H573.27V42.5568H569.49V36.8863H560.795V31.2158H548.698V23.655H575.916V17.9845H562.685V16.0943H560.039V14.2042H566.843C566.843 13.1961 567.095 11.936 567.6 10.4238H563.441C563.693 9.66775 564.071 9.03769 564.575 8.53365C565.079 7.77757 565.583 7.14751 566.087 6.64347H589.148C591.164 5.13132 593.306 4.37524 595.574 4.37524H710.119C721.208 4.37524 731.415 5.13132 740.74 6.64347H718.058C721.082 7.14751 723.98 7.77757 726.752 8.53365C729.777 9.03769 732.549 9.66775 735.069 10.4238H739.606C741.622 10.9279 743.512 11.5579 745.276 12.314C747.292 12.818 749.183 13.4481 750.947 14.2042H744.142C744.898 14.4562 745.654 14.7082 746.41 14.9602C747.166 15.2123 747.922 15.5903 748.678 16.0943H750.947L755.105 17.9845H768.714L778.543 23.655H750.947C752.963 24.6631 754.727 25.9233 756.239 27.4354C757.751 28.6955 759.263 29.9557 760.776 31.2158H772.873L778.543 36.8863H787.238C787.994 37.8944 788.75 38.9025 789.506 39.9106C790.514 40.6666 791.27 41.5487 791.774 42.5568H795.555C796.311 43.3129 796.815 43.943 797.067 44.447H767.958C768.714 45.4551 769.47 46.7152 770.226 48.2273C770.983 49.4875 771.739 50.7476 772.495 52.0077H780.433L781.19 53.8979H775.897L778.165 59.5684H787.238L789.506 67.1291H803.872L805.006 70.9095H770.605C771.109 71.9176 771.361 73.1777 771.361 74.6898C771.613 75.95 771.865 77.2101 772.117 78.4702H820.505C820.757 79.4783 820.883 80.4864 820.883 81.4945C820.883 82.2505 821.009 83.1326 821.261 84.1407H819.371C819.623 85.4008 819.749 86.6609 819.749 87.9211C820.001 89.1812 820.127 90.4413 820.127 91.7014H805.384V99.2621ZM710.497 104.933H701.802L702.936 99.2621H707.095V95.4818C707.095 94.9777 707.095 94.3477 707.095 93.5916C707.095 92.8355 706.969 92.2055 706.717 91.7014H721.46C721.208 90.4413 720.956 89.1812 720.704 87.9211C720.452 86.4089 720.074 85.1488 719.57 84.1407H721.082C720.578 82.1245 719.318 80.2344 717.302 78.4702H668.913C665.889 75.95 662.234 74.6898 657.95 74.6898H631.488V78.4702H612.208V84.1407H654.17V91.7014H664.755V95.4818H665.133V99.2621H663.621V104.933H665.133V106.823H660.974V114.384H662.108V116.274H663.242V116.652H689.705C691.217 116.652 692.351 116.526 693.107 116.274H698.4C699.408 116.022 700.29 115.77 701.046 115.518C701.802 115.014 702.558 114.636 703.314 114.384H699.534C702.558 112.619 704.826 110.099 706.339 106.823H709.741C710.245 105.815 710.497 105.185 710.497 104.933ZM822.047 14.2042C822.299 13.4481 822.425 12.818 822.425 12.314C822.677 11.5579 822.929 10.9279 823.181 10.4238H781.597C782.101 9.66775 782.605 9.03769 783.109 8.53365C783.613 7.77757 784.117 7.14751 784.621 6.64347H828.473C830.49 5.13132 832.632 4.37524 834.9 4.37524H910.507C913.279 4.37524 915.422 5.13132 916.934 6.64347H873.082C873.586 7.14751 874.09 7.77757 874.594 8.53365C875.35 9.03769 875.854 9.66775 876.106 10.4238H917.312C917.816 11.936 918.068 13.1961 918.068 14.2042H939.238C939.49 14.2042 939.616 14.3302 939.616 14.5822V17.9845H888.581V25.5452H909.751V31.2158H907.483V38.7765H893.874V46.3372H924.494V48.2273H926.763V55.7881H928.275V63.3488H925.628V70.9095H923.738V80.3604H930.165V87.9211H922.982V95.4818H924.494V97.3719H951.335V104.933H965.322V108.713H907.105V112.493H926.385V120.054H910.507V127.615H924.116V131.395H926.763V137.066H977.419V140.846H1012.58V148.407H916.556V140.846H881.398V137.066H830.742V131.395H828.095V127.615H814.486V120.054H830.364V112.493H811.084V108.713H869.301V104.933H855.314V97.3719H828.473V95.4818H826.961V87.9211H834.144V80.3604H827.717V70.9095H829.607V63.3488H832.254V55.7881H830.742V48.2273H828.473V46.3372H797.853V38.7765H811.462V31.2158H813.73V25.5452H792.56V17.9845H843.595V14.2042H822.047ZM1073.44 218.343H970.237V220.233H977.797V225.904H1031.48V227.794H1014.84V235.355H1041.31V241.025H1045.09V242.916H1042.44V244.806H1041.31V252.366H1042.06V258.037H1040.55V259.927H1038.66C1038.41 260.431 1038.28 261.061 1038.28 261.817H1042.44C1041.69 264.338 1040.3 266.228 1038.28 267.488H1034.12C1032.86 268.496 1031.1 269 1028.83 269H838.302C836.034 269 834.27 268.496 833.01 267.488H836.79C834.522 266.228 833.01 264.338 832.254 261.817H828.095C828.095 261.313 827.969 260.935 827.717 260.683C827.717 260.431 827.717 260.179 827.717 259.927H829.607V258.037H831.12V252.366H830.364V244.806H831.498V242.916H834.144V241.025H830.364V235.355H803.901V227.794H820.535V225.904H766.854V220.233H759.293V218.343H862.497V212.673H820.535V207.002H861.362V205.112H772.146V199.441H784.999V197.551H834.144V195.661H816.754V189.991H846.241V182.43H816.376V178.65H840.949V176.759H829.607V171.089H840.571V167.308H826.583V163.528H859.472V157.858H868.923V154.077H817.132V148.407H913.153V154.077H964.944V157.858H955.493V163.528H922.604V167.308H936.592V171.089H925.628V176.759H936.97V178.65H912.397V182.43H942.262V189.991H912.775V191.503H1017.49C1021.02 191.503 1023.79 192.889 1025.81 195.661H1043.2L1044.33 197.551H995.187L995.943 199.441H982.712C982.964 199.946 983.09 200.702 983.09 201.71V205.112H1072.31V207.002H1031.48V212.673H1073.44V218.343ZM1300.69 123.834H1319.59V131.395H1316.19V138.956H1312.79V144.626H1304.85V146.517H1307.88V148.407H1297.29V152.187H1315.44V157.858H1304.47V159.748H1304.85C1304.85 161.008 1304.73 162.268 1304.47 163.528C1304.47 164.788 1304.47 166.048 1304.47 167.308H1304.1C1303.84 168.065 1303.72 169.199 1303.72 170.711V174.869H1301.83C1301.57 175.373 1301.45 176.003 1301.45 176.759C1301.45 177.515 1301.45 178.146 1301.45 178.65H1305.23L1304.1 186.21H1300.69C1300.44 187.47 1300.19 188.73 1299.94 189.991C1299.94 191.251 1299.68 192.511 1299.18 193.771H1303.34C1303.34 194.023 1303.21 194.275 1302.96 194.527C1302.96 194.779 1302.96 195.157 1302.96 195.661H1308.63C1308.63 195.913 1308.51 196.165 1308.25 196.417C1308.25 196.669 1308.25 197.047 1308.25 197.551H1301.45C1301.2 198.559 1300.94 199.568 1300.69 200.576C1300.44 201.332 1300.19 202.214 1299.94 203.222H1298.8L1296.53 208.892H1292.38C1292.12 209.9 1291.75 210.909 1291.24 211.917C1290.74 212.673 1290.23 213.555 1289.73 214.563H1293.13C1292.63 215.823 1292 217.083 1291.24 218.343H1288.97C1288.72 219.351 1288.22 220.359 1287.46 221.368C1286.96 222.124 1286.45 223.006 1285.95 224.014H1297.67L1295.02 227.794H1281.03L1276.88 233.465H1281.03L1275.74 239.135H1279.9C1279.65 239.387 1279.27 239.639 1278.77 239.891C1278.51 240.143 1278.26 240.521 1278.01 241.025H1282.55C1281.79 241.529 1281.03 242.159 1280.28 242.916C1279.77 243.672 1279.14 244.302 1278.39 244.806H1271.21C1270.45 245.31 1269.69 245.94 1268.94 246.696C1268.18 247.452 1267.3 248.082 1266.29 248.586H1268.94C1268.18 249.09 1267.3 249.72 1266.29 250.476C1265.54 251.232 1264.65 251.862 1263.65 252.366H1262.89C1260.62 253.627 1258.35 254.887 1256.08 256.147C1253.82 257.407 1251.42 258.667 1248.9 259.927H1247.77C1247.01 260.179 1246.26 260.431 1245.5 260.683C1244.74 260.935 1243.99 261.313 1243.23 261.817C1241.47 262.573 1239.7 263.329 1237.94 264.086C1236.43 264.59 1234.66 265.094 1232.65 265.598H1232.27C1223.95 268.118 1214.88 270.008 1205.05 271.268H1205.43C1201.4 271.772 1197.11 272.15 1192.57 272.402C1188.29 272.654 1184.01 272.78 1179.72 272.78C1175.19 272.78 1170.77 272.654 1166.49 272.402C1162.21 272.15 1157.92 271.772 1153.64 271.268C1144.06 270.26 1134.86 268.37 1126.04 265.598H1126.42C1124.65 265.094 1122.89 264.59 1121.13 264.086C1119.36 263.329 1117.6 262.573 1115.83 261.817H1115.46C1114.7 261.313 1113.94 260.935 1113.19 260.683C1112.43 260.431 1111.68 260.179 1110.92 259.927H1112.05C1109.53 258.667 1107.14 257.407 1104.87 256.147C1102.6 254.887 1100.33 253.627 1098.07 252.366H1098.82L1093.15 248.586H1090.88C1089.88 248.082 1088.99 247.452 1088.24 246.696C1087.48 245.94 1086.72 245.31 1085.97 244.806H1093.15L1088.61 241.025H1084.08C1083.83 240.521 1083.57 240.143 1083.32 239.891C1083.07 239.639 1082.69 239.387 1082.19 239.135H1078.41C1077.4 238.127 1076.39 237.245 1075.38 236.489C1074.63 235.481 1073.87 234.473 1073.12 233.465H1068.96L1064.42 227.794H1078.41L1076.14 224.014H1064.04C1063.54 223.006 1063.03 222.124 1062.53 221.368C1062.03 220.359 1061.52 219.351 1061.02 218.343H1063.29C1062.53 217.083 1061.9 215.823 1061.4 214.563H1057.99C1057.49 213.555 1056.99 212.673 1056.48 211.917C1056.23 210.909 1055.85 209.9 1055.35 208.892H1059.88L1057.62 203.222H1058.75C1058.5 202.214 1058.25 201.332 1057.99 200.576C1057.74 199.568 1057.49 198.559 1057.24 197.551H1061.4C1061.14 197.047 1061.02 196.417 1061.02 195.661H1057.24C1057.24 195.157 1057.11 194.779 1056.86 194.527C1056.86 194.275 1056.86 194.023 1056.86 193.771H1056.1C1055.85 192.511 1055.6 191.251 1055.35 189.991C1055.1 188.73 1054.84 187.47 1054.59 186.21H1056.48C1056.23 184.95 1055.98 183.69 1055.73 182.43C1055.73 181.17 1055.73 179.91 1055.73 178.65H1053.46L1053.08 174.869H1055.73V170.711C1055.73 170.207 1055.6 169.703 1055.35 169.199C1055.35 168.443 1055.35 167.813 1055.35 167.308H1050.43C1050.18 166.048 1050.06 164.788 1050.06 163.528C1050.06 162.268 1050.06 161.008 1050.06 159.748H1052.7V157.858H1051.57V152.187H1059.13V148.407H1045.9V146.517H1053.08V144.626H1052.7V138.956H1050.81V131.395H1053.08V123.834H1050.43V118.164H1036.45V110.603H1052.7C1052.95 110.099 1053.08 109.469 1053.08 108.713H1059.13V106.823H1054.59V103.042H1054.97L1055.73 95.4818H1054.97C1054.97 94.4737 1054.97 93.5916 1054.97 92.8355C1055.22 91.8274 1055.47 90.8193 1055.73 89.8112H1054.59C1054.59 88.8031 1054.59 87.9211 1054.59 87.165C1054.84 86.1569 1055.1 85.1488 1055.35 84.1407H1054.59C1054.84 83.1326 1055.1 82.2505 1055.35 81.4945C1055.6 80.4864 1055.85 79.4783 1056.1 78.4702H1045.52C1045.52 77.9661 1045.52 77.5881 1045.52 77.3361C1045.77 77.0841 1045.9 76.832 1045.9 76.58H1057.24L1058.37 72.7996H1057.62L1058.37 70.9095H1064.04C1064.29 70.4054 1064.55 69.7754 1064.8 69.0193C1065.05 68.2632 1065.3 67.6332 1065.55 67.1291H1061.77C1062.53 64.8609 1063.54 62.3407 1064.8 59.5684H1063.66C1064.42 58.3083 1065.05 57.0482 1065.55 55.7881C1066.31 54.2759 1067.07 53.0158 1067.82 52.0077H1068.96L1070.09 50.1175H1064.04L1065.18 48.2273H1071.23L1072.36 46.3372H1071.6L1076.14 40.6666H1073.49L1078.41 34.9961C1079.67 33.736 1080.93 32.4759 1082.19 31.2158C1083.7 29.7036 1085.21 28.4435 1086.72 27.4354H1082.94L1085.21 25.5452H1081.05C1081.56 25.0412 1081.94 24.6632 1082.19 24.4111C1082.69 24.1591 1083.2 23.9071 1083.7 23.655H1093.15C1094.16 23.151 1095.17 22.5209 1096.18 21.7649C1097.18 21.0088 1098.19 20.3788 1099.2 19.8747H1100.33C1102.85 18.6146 1105.37 17.3545 1107.89 16.0943C1110.41 14.5822 1112.94 13.3221 1115.46 12.314H1116.59C1121.63 10.0458 1127.17 8.15561 1133.22 6.64347H1135.11C1142.42 4.62728 1150.11 3.11514 1158.17 2.10704C1166.24 1.09894 1174.55 0.594895 1183.12 0.594895C1201.02 0.594895 1216.89 2.61109 1230.76 6.64347H1228.49C1231.26 7.39953 1234.03 8.28161 1236.8 9.28971C1239.58 10.0458 1242.22 11.0539 1244.74 12.314H1243.23C1246 13.3221 1248.52 14.5822 1250.79 16.0943C1253.31 17.3545 1255.83 18.6146 1258.35 19.8747H1256.84L1262.51 23.655H1253.06C1253.56 23.9071 1253.94 24.1591 1254.19 24.4111C1254.7 24.6632 1255.2 25.0412 1255.71 25.5452H1259.86C1260.37 25.7973 1260.87 26.0493 1261.38 26.3013C1261.88 26.5533 1262.26 26.9314 1262.51 27.4354H1266.29C1267.8 28.4435 1269.19 29.7036 1270.45 31.2158C1271.96 32.4759 1273.35 33.736 1274.61 34.9961H1274.99C1275.99 36.0042 1276.88 37.0123 1277.63 38.0204C1278.39 38.7765 1279.14 39.6585 1279.9 40.6666H1282.55L1287.08 46.3372H1287.84C1288.6 47.0932 1289.1 47.7233 1289.35 48.2273H1283.3L1284.44 50.1175H1290.86L1292 52.0077H1290.86C1291.62 53.0158 1292.25 54.2759 1292.75 55.7881C1293.51 57.0482 1294.27 58.3083 1295.02 59.5684H1296.16L1299.56 67.1291H1303.34L1304.47 70.9095H1298.8L1299.56 72.7996H1300.31L1301.45 76.58H1300.31C1300.31 76.832 1300.31 77.0841 1300.31 77.3361C1300.57 77.5881 1300.69 77.9661 1300.69 78.4702H1284.82C1285.32 79.4783 1285.57 80.4864 1285.57 81.4945C1285.82 82.2505 1286.08 83.1326 1286.33 84.1407H1305.99C1306.24 85.1488 1306.36 86.1569 1306.36 87.165C1306.62 87.9211 1306.74 88.8031 1306.74 89.8112H1301.45C1301.7 90.8193 1301.83 91.8274 1301.83 92.8355C1302.08 93.5916 1302.2 94.4737 1302.2 95.4818H1307.12L1307.88 103.042H1302.96V104.177C1302.96 104.429 1302.96 104.807 1302.96 105.311C1303.21 105.815 1303.34 106.319 1303.34 106.823H1313.55V108.713H1304.47C1304.73 109.217 1304.85 109.847 1304.85 110.603H1311.66C1311.91 111.863 1312.03 113.123 1312.03 114.384C1312.03 115.644 1312.03 116.904 1312.03 118.164H1300.69V123.834ZM1217.9 131.395H1221.31V123.834H1202.4V118.164H1213.74C1213.74 116.904 1213.74 115.644 1213.74 114.384C1213.74 113.123 1213.62 111.863 1213.37 110.603H1206.56C1206.56 110.099 1206.44 109.721 1206.18 109.469C1206.18 109.217 1206.18 108.965 1206.18 108.713H1215.26V106.823H1205.05C1205.05 106.319 1204.92 105.941 1204.67 105.689C1204.67 105.437 1204.67 105.185 1204.67 104.933V103.042H1209.21C1209.21 101.782 1209.08 100.522 1208.83 99.2621C1208.83 97.75 1208.7 96.4899 1208.45 95.4818H1203.54C1203.29 94.4737 1203.03 93.5916 1202.78 92.8355C1202.53 91.8274 1202.15 90.8193 1201.65 89.8112H1206.94C1206.18 87.7951 1205.18 85.9049 1203.92 84.1407H1184.26C1183 82.1245 1180.98 80.2344 1178.21 78.4702H1194.09C1192.57 77.4621 1191.44 76.832 1190.68 76.58H1191.82C1188.04 75.0679 1183.88 74.3118 1179.34 74.3118C1174.81 74.3118 1170.65 75.0679 1166.87 76.58H1155.91C1154.9 76.832 1153.64 77.4621 1152.12 78.4702H1162.71C1160.69 79.7303 1158.68 81.6205 1156.66 84.1407H1157.42C1156.16 85.9049 1155.15 87.7951 1154.39 89.8112H1155.53C1155.28 90.8193 1155.02 91.8274 1154.77 92.8355C1154.52 93.5916 1154.14 94.4737 1153.64 95.4818H1154.39C1154.14 96.4899 1153.89 97.75 1153.64 99.2621C1153.64 100.522 1153.64 101.782 1153.64 103.042H1152.88V106.823H1157.42V108.713H1151.37V110.603H1134.74V118.164H1148.72V123.834H1151.37V131.395H1149.1V138.956H1150.99V144.626H1151.37C1151.37 145.382 1151.49 146.013 1151.75 146.517H1144.19V148.407H1157.42V152.187H1149.86V157.858H1150.99V159.748H1148.34C1148.34 161.008 1148.34 162.268 1148.34 163.528C1148.6 164.788 1148.72 166.048 1148.72 167.308H1154.02V168.443C1154.02 169.451 1154.02 170.585 1154.02 171.845C1154.02 172.853 1154.14 173.861 1154.39 174.869H1151.75C1152 175.373 1152.12 176.003 1152.12 176.759C1152.12 177.515 1152.25 178.146 1152.5 178.65H1154.77C1155.02 179.91 1155.4 181.17 1155.91 182.43C1156.41 183.69 1156.91 184.95 1157.42 186.21H1155.53C1157.04 188.983 1159.06 191.503 1161.58 193.771H1162.33C1162.84 194.023 1163.34 194.401 1163.84 194.905C1164.35 195.157 1164.85 195.409 1165.36 195.661H1168.76C1169.51 195.913 1170.27 196.291 1171.03 196.795C1171.78 197.047 1172.54 197.299 1173.29 197.551H1168.76C1171.78 198.559 1175.31 199.063 1179.34 199.063C1183.38 199.063 1186.9 198.559 1189.93 197.551H1196.35C1197.11 197.299 1197.87 197.047 1198.62 196.795C1199.38 196.291 1200.14 195.913 1200.89 195.661H1194.84C1195.35 195.409 1195.85 195.157 1196.35 194.905C1196.86 194.401 1197.36 194.023 1197.87 193.771H1193.71C1195.98 192.007 1197.99 189.487 1199.76 186.21H1203.16C1204.42 183.438 1205.43 180.918 1206.18 178.65H1202.4C1202.66 178.146 1202.78 177.515 1202.78 176.759C1202.78 176.003 1202.91 175.373 1203.16 174.869H1205.05C1205.3 173.861 1205.43 172.853 1205.43 171.845C1205.43 170.585 1205.43 169.451 1205.43 168.443V167.308H1206.18C1206.18 166.048 1206.18 164.788 1206.18 163.528C1206.18 162.268 1206.31 161.008 1206.56 159.748H1206.18V157.858H1217.15V152.187H1199V148.407H1209.59V146.517H1206.56V144.626H1214.5V138.956H1217.9V131.395ZM1577.49 118.164H1558.96C1558.71 119.172 1558.46 120.18 1558.21 121.188C1557.95 121.944 1557.58 122.826 1557.07 123.834H1567.66L1566.52 127.615H1557.45C1556.69 129.883 1555.69 132.403 1554.43 135.175H1548.75C1547.75 137.696 1546.36 140.216 1544.6 142.736H1545.35C1544.34 143.996 1543.46 145.256 1542.71 146.517C1541.95 147.777 1541.07 149.037 1540.06 150.297H1580.89L1575.97 155.967H1542.33C1541.32 157.228 1540.06 158.488 1538.55 159.748C1537.04 161.008 1535.65 162.268 1534.39 163.528H1539.3C1538.3 164.536 1537.04 165.544 1535.52 166.552C1534.26 167.308 1533 168.191 1531.74 169.199H1544.22L1542.71 170.333L1546.11 176.759H1537.04L1541.19 184.32H1542.33L1543.46 186.21H1543.08L1546.86 193.771H1550.64L1552.91 197.551H1523.8L1526.83 203.222H1553.29L1555.56 207.002H1547.24L1550.27 212.673H1587.69L1591.85 220.233H1566.9L1569.92 225.904H1558.21L1564.25 237.245H1566.9L1569.17 241.025H1568.03L1569.17 242.916H1551.4L1555.56 250.476L1556.32 252.366H1544.6L1546.49 256.525C1547.24 257.533 1547.62 258.667 1547.62 259.927H1555.56V260.683C1555.56 263.455 1554.43 265.724 1552.16 267.488H1562.36C1561.1 268.496 1559.47 269 1557.45 269H1479.95C1478.44 269 1477.05 268.874 1475.79 268.622C1474.79 268.118 1473.65 267.74 1472.39 267.488H1462.18C1460.17 266.48 1458.4 265.22 1456.89 263.708C1455.63 262.195 1454.62 260.935 1453.87 259.927H1446.31L1445.55 258.793L1442.9 252.366H1455L1453.87 250.476H1417.95V252.366H1398.67V259.927H1429.3C1428.79 263.455 1427.15 265.976 1424.38 267.488H1421.73C1419.97 268.496 1418.08 269 1416.06 269H1341.97C1339.7 269 1337.94 268.496 1336.68 267.488H1339.7C1336.93 265.976 1335.29 263.455 1334.79 259.927H1304.54C1304.54 259.675 1304.54 259.549 1304.54 259.549C1304.29 259.297 1304.17 259.045 1304.17 258.793V252.366H1323.45V250.476H1361.25V242.916H1320.8V241.025H1344.62V237.245H1336.68V231.574H1349.91V225.904H1328.36V220.233H1357.47V212.673H1340.84V207.002H1340.46V205.112H1338.19V203.222H1327.98V197.551H1340.84V193.771H1337.43V186.21H1337.81V184.32H1336.68V176.759H1345.75V169.199H1332.9V163.528H1327.98V155.967H1361.25V150.297H1320.42V142.736H1319.67V135.175H1325.34V127.615H1334.03V123.834H1323.45V118.164H1341.97V114.384H1369.19V110.603H1331.76V108.713H1333.65V106.823H1337.05V104.933H1337.43V101.152H1336.68V95.4818H1338.19V87.9211H1336.3V84.1407H1338.19V78.4702H1336.68V76.58H1337.81V72.7996H1337.43V70.9095H1335.92V69.0193H1339.32V63.3488H1342.35V57.6782H1324.58V50.1175H1328.74V42.5568H1326.47V36.8863H1336.68V31.2158H1340.46V25.5452H1333.65V21.7649H1336.3V19.8747H1337.05V14.2042H1337.81C1337.81 11.4319 1338.95 8.91167 1341.21 6.64347H1361.63C1363.14 5.13132 1365.28 4.37524 1368.05 4.37524H1479.95C1490.79 4.37524 1500.87 5.13132 1510.2 6.64347H1490.16C1500.24 8.15561 1509.82 10.6758 1518.89 14.2042H1518.13C1522.42 15.7163 1526.58 17.6065 1530.61 19.8747H1529.85L1533.26 21.7649H1530.23C1531.49 22.2689 1532.5 22.899 1533.26 23.655C1534.26 24.4111 1535.27 25.0412 1536.28 25.5452H1543.08C1544.34 26.5533 1545.6 27.5614 1546.86 28.5695C1548.12 29.3256 1549.26 30.2077 1550.27 31.2158H1546.49C1547.75 32.2239 1548.75 33.232 1549.51 34.24C1550.52 34.9961 1551.53 35.8782 1552.54 36.8863H1542.33C1543.34 37.8944 1544.22 38.9025 1544.97 39.9106C1545.73 40.6666 1546.49 41.5487 1547.24 42.5568H1549.13C1551.15 45.0771 1552.91 47.5973 1554.43 50.1175H1550.64C1551.4 51.1256 1552.03 52.3857 1552.54 53.8979C1553.29 55.158 1554.05 56.4181 1554.8 57.6782H1572.57L1574.84 63.3488H1571.81C1572.07 64.3569 1572.32 65.365 1572.57 66.3731C1573.08 67.1291 1573.45 68.0112 1573.71 69.0193H1569.92L1570.68 70.9095H1572.19C1572.45 71.4135 1572.57 72.0436 1572.57 72.7996L1573.71 76.58H1574.84C1574.84 77.3361 1574.97 77.9661 1575.22 78.4702H1575.6C1575.85 79.4783 1575.97 80.4864 1575.97 81.4945C1576.23 82.2505 1576.35 83.1326 1576.35 84.1407H1571.44C1571.44 84.6448 1571.44 85.2748 1571.44 86.0309C1571.44 86.787 1571.56 87.417 1571.81 87.9211H1574.08C1574.08 89.1812 1574.08 90.4413 1574.08 91.7014C1574.34 92.9615 1574.46 94.2217 1574.46 95.4818V99.2621H1576.73V101.152H1574.46V104.933H1570.68C1570.68 105.185 1570.55 105.437 1570.3 105.689C1570.3 105.941 1570.3 106.319 1570.3 106.823H1574.08C1574.08 107.075 1573.96 107.327 1573.71 107.579C1573.71 107.831 1573.71 108.209 1573.71 108.713H1591.47C1591.22 109.217 1591.09 109.847 1591.09 110.603H1596.01L1595.63 114.384H1578.24C1577.74 115.896 1577.49 117.156 1577.49 118.164ZM1426.27 110.603H1463.7V114.384H1436.48V114.762H1464.07C1465.84 114.762 1467.23 114.636 1468.23 114.384H1485.62C1488.4 113.627 1490.92 112.367 1493.18 110.603H1487.89L1489.78 108.713H1472.01C1472.77 107.957 1473.27 107.327 1473.53 106.823H1469.75L1470.88 104.933H1474.66L1475.79 101.152H1477.68C1477.94 100.648 1478.06 100.018 1478.06 99.2621H1475.79L1476.17 95.4818C1476.17 92.9615 1475.79 90.4413 1475.04 87.9211H1472.77C1472.52 87.417 1472.27 86.787 1472.01 86.0309C1472.01 85.2748 1471.76 84.6448 1471.26 84.1407H1476.55C1475.54 82.1245 1474.16 80.2344 1472.39 78.4702H1471.64C1470.88 77.7141 1470 77.0841 1468.99 76.58H1467.86C1465.33 75.3199 1462.69 74.6898 1459.92 74.6898H1432.32V76.58H1431.19V78.4702H1432.7V84.1407H1430.81V87.9211H1432.7V95.4818H1431.19V101.152H1431.94V104.933H1431.56V106.823H1428.16V108.713H1426.27V110.603ZM1456.14 197.551L1454.62 193.771H1450.47L1447.44 186.588H1431.94V193.771H1435.34V197.551H1456.14ZM1422.49 197.551V203.222H1429.67L1427.41 197.551H1422.49ZM1456.89 205.112L1456.14 203.222H1432.7V205.112H1434.97V207.002H1435.34V212.673H1451.98V220.233H1422.87V225.904H1444.42V231.574H1431.19V237.245H1439.12V241.025H1415.31V242.916H1468.61L1467.48 241.025H1468.61L1466.72 237.245H1463.7L1461.43 231.574L1458.78 225.904H1470.88L1468.23 220.233H1492.81L1489.4 212.673H1451.98L1449.71 207.002H1458.03L1456.89 205.112ZM1844.64 203.222H1874.5V208.892H1817.04V216.453H1854.09V224.014H1821.58V231.574H1825.73V237.245H1823.09V241.025H1815.15V244.806H1814.77V248.586H1822.71V256.147H1833.67V258.793C1833.67 259.297 1833.55 259.675 1833.29 259.927H1766C1765.75 260.431 1765.63 261.061 1765.63 261.817H1791.71C1790.95 264.338 1789.57 266.228 1787.55 267.488H1780.37C1779.11 268.496 1777.35 269 1775.08 269H1578.12C1576.1 269 1574.21 268.496 1572.45 267.488H1579.63C1577.87 266.228 1576.48 264.338 1575.47 261.817H1549.01C1548.76 261.313 1548.63 260.683 1548.63 259.927H1616.3V256.147H1605.34V248.586H1597.4V244.806H1597.78V241.025H1605.72V237.245H1608.36V231.574H1604.2V224.014H1636.72V216.453H1599.67V208.892H1657.13V203.222H1627.27V199.441H1635.96V195.661H1639.74V191.881H1597.78V188.1H1587.95V182.43H1623.11V180.54H1595.13V176.759H1603.45V172.979H1609.5V167.308H1608.74V159.748H1604.96V152.187H1599.29V148.407H1603.83V140.846H1599.67V137.066H1605.72V131.395H1607.23V125.725H1614.03V123.834H1607.61V116.274H1601.94V110.603H1603.45V104.933H1604.2V97.3719H1609.88V89.8112H1601.56V82.2505H1602.69V74.6898H1613.28V69.0193H1607.61V63.3488H1604.58V61.4586H1620.46V55.7881H1648.43V52.0077H1637.09V48.2273H1600.42V46.3372H1604.58V40.6666H1604.96V34.9961H1606.1V27.4354H1605.72V17.9845H1604.96V14.5822C1604.96 13.5741 1605.09 12.818 1605.34 12.314H1601.56C1602.57 7.0215 1605.84 4.37524 1611.39 4.37524H1805.32C1811.12 4.37524 1814.39 7.0215 1815.15 12.314H1818.93C1819.18 12.818 1819.31 13.5741 1819.31 14.5822V17.9845H1820.06V27.4354H1820.44V34.9961H1819.31V40.6666H1818.93V46.3372H1814.77V48.2273H1851.44V52.0077H1862.78V55.7881H1834.81V61.4586H1818.93V63.3488H1821.95V69.0193H1827.62C1827.12 71.5395 1826.24 73.4297 1824.98 74.6898H1814.39C1812.63 76.958 1810.11 78.0922 1806.83 78.0922H1693.42V82.2505H1692.29V89.8112H1700.6V97.3719H1694.93V101.908H1800.03C1802.8 101.908 1805.19 102.916 1807.21 104.933H1806.45C1807.71 106.193 1808.6 108.083 1809.1 110.603H1807.97V116.274H1813.64V123.834H1820.06V125.725H1813.26V131.395H1811.75V137.066H1805.7V140.846H1809.86V148.407H1805.32V152.187H1810.99V159.748H1814.77V161.26C1814.77 164.032 1814.14 166.048 1812.88 167.308H1813.64C1811.62 170.081 1808.85 171.467 1805.32 171.467H1700.23V172.979H1694.18V176.759H1685.86V180.54H1713.84V182.43H1678.68V188.1H1688.51V191.881H1730.47V195.283H1846.9C1848.16 195.283 1849.17 195.409 1849.93 195.661H1845.77C1848.29 196.417 1850.18 197.677 1851.44 199.441H1842.75C1843.75 200.954 1844.38 202.214 1844.64 203.222Z" fill="url(#paint0_linear_200_280)"/>
<defs>
<linearGradient id="paint0_linear_200_280" x1="978.5" y1="-70.6067" x2="978.5" y2="374.539" gradientUnits="userSpaceOnUse">
<stop stop-color="#8A39F1"/>
<stop offset="1" stop-color="#FFAE00" stop-opacity="0"/>
</linearGradient>
</defs>
</svg>
