<svg width="25" height="25" viewBox="0 0 25 25" fill="none" xmlns="http://www.w3.org/2000/svg">
<mask id="mask0_214_404" style="mask-type:alpha" maskUnits="userSpaceOnUse" x="0" y="0" width="25" height="25">
<rect x="0.723877" y="0.445068" width="24" height="24" fill="#D9D9D9"/>
</mask>
<g mask="url(#mask0_214_404)">
<path d="M6.72388 13.4451H15.7239V11.4451H6.72388V13.4451ZM6.72388 10.4451H15.7239V8.44507H6.72388V10.4451ZM4.72388 20.4451C4.17388 20.4451 3.70304 20.2492 3.31138 19.8576C2.91971 19.4659 2.72388 18.9951 2.72388 18.4451V6.44507C2.72388 5.89507 2.91971 5.42424 3.31138 5.03257C3.70304 4.6409 4.17388 4.44507 4.72388 4.44507H20.7239C21.2739 4.44507 21.7447 4.6409 22.1364 5.03257C22.528 5.42424 22.7239 5.89507 22.7239 6.44507V18.4451C22.7239 18.9951 22.528 19.4659 22.1364 19.8576C21.7447 20.2492 21.2739 20.4451 20.7239 20.4451H4.72388ZM4.72388 18.4451H20.7239V6.44507H4.72388V18.4451Z" fill="white"/>
</g>
</svg>
