<svg width="125" height="52" viewBox="0 0 125 52" fill="none" xmlns="http://www.w3.org/2000/svg">
<g filter="url(#filter0_d_156_17)">
<circle cx="22" cy="22" r="22" transform="matrix(-1 0 0 1 120.5 0)" fill="url(#paint0_linear_156_17)"/>
<path d="M43.3668 24.1342C42.4643 23.2316 42.4643 21.7684 43.3668 20.8658L58.0742 6.15847C58.9767 5.25596 60.44 5.25596 61.3425 6.15847C62.245 7.06099 62.245 8.52426 61.3425 9.42678L48.2693 22.5L61.3425 35.5732C62.245 36.4757 62.245 37.939 61.3425 38.8415C60.44 39.744 58.9767 39.744 58.0742 38.8415L43.3668 24.1342ZM46.001 24.811H45.001V20.189H46.001V24.811Z" fill="#535353"/>
<path d="M24.8663 24.1342C23.9638 23.2316 23.9638 21.7684 24.8663 20.8658L39.5737 6.15847C40.4762 5.25596 41.9395 5.25596 42.842 6.15847C43.7445 7.06099 43.7445 8.52426 42.842 9.42678L29.7688 22.5L42.842 35.5732C43.7445 36.4757 43.7445 37.939 42.842 38.8415C41.9395 39.744 40.4762 39.744 39.5737 38.8415L24.8663 24.1342ZM27.5005 24.811H26.5005V20.189H27.5005V24.811Z" fill="#535353"/>
<path d="M23.8663 24.6342C22.9638 23.7316 22.9638 22.2684 23.8663 21.3658L38.5737 6.65847C39.4762 5.75596 40.9395 5.75596 41.842 6.65847C42.7445 7.56099 42.7445 9.02426 41.842 9.92678L28.7688 23L41.842 36.0732C42.7445 36.9757 42.7445 38.439 41.842 39.3415C40.9395 40.244 39.4762 40.244 38.5737 39.3415L23.8663 24.6342ZM26.5005 25.311H25.5005V20.689H26.5005V25.311Z" fill="#535353"/>
<path d="M5.36585 24.6342C4.46333 23.7316 4.46333 22.2684 5.36585 21.3658L20.0732 6.65847C20.9757 5.75596 22.439 5.75596 23.3415 6.65847C24.244 7.56099 24.244 9.02426 23.3415 9.92678L10.2683 23L23.3415 36.0732C24.244 36.9757 24.244 38.439 23.3415 39.3415C22.439 40.244 20.9757 40.244 20.0732 39.3415L5.36585 24.6342ZM8 25.311H7V20.689H8V25.311Z" fill="#535353"/>
<path d="M98.1641 31.2187C97.0391 31.2187 96.0391 31.026 95.1641 30.6406C94.2943 30.2552 93.6068 29.7187 93.1016 29.0312C92.5964 28.3437 92.3281 27.5495 92.2969 26.6484H95.2344C95.2604 27.0807 95.4036 27.4583 95.6641 27.7812C95.9245 28.099 96.2708 28.3464 96.7031 28.5234C97.1354 28.7005 97.6198 28.7891 98.1563 28.7891C98.7292 28.7891 99.237 28.6901 99.6797 28.4922C100.122 28.2891 100.469 28.0078 100.719 27.6484C100.969 27.2891 101.091 26.875 101.086 26.4062C101.091 25.9219 100.966 25.4948 100.711 25.125C100.456 24.7552 100.086 24.4661 99.6016 24.2578C99.1224 24.0495 98.5443 23.9453 97.8672 23.9453H96.4531V21.7109H97.8672C98.4245 21.7109 98.9115 21.6146 99.3281 21.4219C99.75 21.2292 100.081 20.9583 100.32 20.6094C100.56 20.2552 100.677 19.8464 100.672 19.3828C100.677 18.9297 100.576 18.5365 100.367 18.2031C100.164 17.8646 99.875 17.6016 99.5 17.4141C99.1302 17.2266 98.6953 17.1328 98.1953 17.1328C97.7057 17.1328 97.2526 17.2214 96.8359 17.3984C96.4193 17.5755 96.0833 17.8281 95.8281 18.1563C95.5729 18.4792 95.4375 18.8646 95.4219 19.3125H92.6328C92.6536 18.4167 92.9115 17.6302 93.4062 16.9531C93.9062 16.2708 94.5729 15.7396 95.4063 15.3594C96.2396 14.974 97.1745 14.7812 98.2109 14.7812C99.2786 14.7812 100.206 14.9818 100.992 15.3828C101.784 15.7786 102.396 16.3125 102.828 16.9844C103.26 17.6562 103.477 18.3984 103.477 19.2109C103.482 20.112 103.216 20.8672 102.68 21.4766C102.148 22.0859 101.451 22.4844 100.586 22.6719V22.7969C101.711 22.9531 102.573 23.3698 103.172 24.0469C103.776 24.7187 104.076 25.5547 104.07 26.5547C104.07 27.4505 103.815 28.2526 103.305 28.9609C102.799 29.6641 102.102 30.2161 101.211 30.6172C100.326 31.0182 99.3099 31.2187 98.1641 31.2187Z" fill="white"/>
</g>
<defs>
<filter id="filter0_d_156_17" x="0.688965" y="0" width="123.812" height="52" filterUnits="userSpaceOnUse" color-interpolation-filters="sRGB">
<feFlood flood-opacity="0" result="BackgroundImageFix"/>
<feColorMatrix in="SourceAlpha" type="matrix" values="0 0 0 0 0 0 0 0 0 0 0 0 0 0 0 0 0 0 127 0" result="hardAlpha"/>
<feOffset dy="4"/>
<feGaussianBlur stdDeviation="2"/>
<feComposite in2="hardAlpha" operator="out"/>
<feColorMatrix type="matrix" values="0 0 0 0 0 0 0 0 0 0 0 0 0 0 0 0 0 0 0.25 0"/>
<feBlend mode="normal" in2="BackgroundImageFix" result="effect1_dropShadow_156_17"/>
<feBlend mode="normal" in="SourceGraphic" in2="effect1_dropShadow_156_17" result="shape"/>
</filter>
<linearGradient id="paint0_linear_156_17" x1="22" y1="0" x2="22" y2="44" gradientUnits="userSpaceOnUse">
<stop stop-color="#D100E4"/>
<stop offset="1" stop-color="#F1B739"/>
</linearGradient>
</defs>
</svg>
