<svg width="124" height="52" viewBox="0 0 124 52" fill="none" xmlns="http://www.w3.org/2000/svg">
<g filter="url(#filter0_d_156_17)">
<circle cx="26" cy="22" r="22" fill="url(#paint0_linear_156_17)"/>
<path d="M81.1337 24.1342C82.0362 23.2316 82.0362 21.7684 81.1337 20.8658L66.4263 6.15847C65.5238 5.25596 64.0605 5.25596 63.158 6.15847C62.2555 7.06099 62.2555 8.52426 63.158 9.42678L76.2312 22.5L63.158 35.5732C62.2555 36.4757 62.2555 37.939 63.158 38.8415C64.0605 39.744 65.5238 39.744 66.4263 38.8415L81.1337 24.1342ZM78.4995 24.811H79.4995V20.189H78.4995V24.811Z" fill="#535353"/>
<path d="M99.6342 24.1342C100.537 23.2316 100.537 21.7684 99.6342 20.8658L84.9268 6.15847C84.0243 5.25596 82.561 5.25596 81.6585 6.15847C80.756 7.06099 80.756 8.52426 81.6585 9.42678L94.7317 22.5L81.6585 35.5732C80.756 36.4757 80.756 37.939 81.6585 38.8415C82.561 39.744 84.0243 39.744 84.9268 38.8415L99.6342 24.1342ZM97 24.811H98V20.189H97V24.811Z" fill="#535353"/>
<path d="M100.634 24.6342C101.537 23.7316 101.537 22.2684 100.634 21.3658L85.9268 6.65847C85.0243 5.75596 83.561 5.75596 82.6585 6.65847C81.756 7.56099 81.756 9.02426 82.6585 9.92678L95.7317 23L82.6585 36.0732C81.756 36.9757 81.756 38.439 82.6585 39.3415C83.561 40.244 85.0243 40.244 85.9268 39.3415L100.634 24.6342ZM98 25.311H99V20.689H98V25.311Z" fill="#535353"/>
<path d="M119.135 24.6342C120.037 23.7316 120.037 22.2684 119.135 21.3658L104.427 6.65847C103.525 5.75596 102.061 5.75596 101.159 6.65847C100.256 7.56099 100.256 9.02426 101.159 9.92678L114.232 23L101.159 36.0732C100.256 36.9757 100.256 38.439 101.159 39.3415C102.061 40.244 103.525 40.244 104.427 39.3415L119.135 24.6342ZM116.5 25.311H117.5V20.689H116.5V25.311Z" fill="#535353"/>
<path d="M20.4219 30V27.9062L25.9766 22.4609C26.5078 21.9245 26.9505 21.4479 27.3047 21.0312C27.6589 20.6146 27.9245 20.2109 28.1016 19.8203C28.2786 19.4297 28.3672 19.013 28.3672 18.5703C28.3672 18.0651 28.2526 17.6328 28.0234 17.2734C27.7943 16.9089 27.4792 16.6276 27.0781 16.4297C26.6771 16.2318 26.2214 16.1328 25.7109 16.1328C25.1849 16.1328 24.724 16.2422 24.3281 16.4609C23.9323 16.6745 23.625 16.9792 23.4063 17.375C23.1927 17.7708 23.0859 18.2422 23.0859 18.7891H20.3281C20.3281 17.7734 20.5599 16.8906 21.0234 16.1406C21.487 15.3906 22.125 14.8099 22.9375 14.3984C23.7552 13.987 24.6927 13.7812 25.75 13.7812C26.8229 13.7812 27.7656 13.9818 28.5781 14.3828C29.3906 14.7839 30.0208 15.3333 30.4687 16.0312C30.9219 16.7292 31.1484 17.526 31.1484 18.4219C31.1484 19.0208 31.0339 19.6094 30.8047 20.1875C30.5755 20.7656 30.1719 21.4062 29.5938 22.1094C29.0208 22.8125 28.2161 23.6641 27.1797 24.6641L24.4219 27.4687V27.5781H31.3906V30H20.4219Z" fill="white"/>
</g>
<defs>
<filter id="filter0_d_156_17" x="0" y="0" width="123.812" height="52" filterUnits="userSpaceOnUse" color-interpolation-filters="sRGB">
<feFlood flood-opacity="0" result="BackgroundImageFix"/>
<feColorMatrix in="SourceAlpha" type="matrix" values="0 0 0 0 0 0 0 0 0 0 0 0 0 0 0 0 0 0 127 0" result="hardAlpha"/>
<feOffset dy="4"/>
<feGaussianBlur stdDeviation="2"/>
<feComposite in2="hardAlpha" operator="out"/>
<feColorMatrix type="matrix" values="0 0 0 0 0 0 0 0 0 0 0 0 0 0 0 0 0 0 0.25 0"/>
<feBlend mode="normal" in2="BackgroundImageFix" result="effect1_dropShadow_156_17"/>
<feBlend mode="normal" in="SourceGraphic" in2="effect1_dropShadow_156_17" result="shape"/>
</filter>
<linearGradient id="paint0_linear_156_17" x1="26" y1="0" x2="26" y2="44" gradientUnits="userSpaceOnUse">
<stop stop-color="#D100E4"/>
<stop offset="1" stop-color="#F1B739"/>
</linearGradient>
</defs>
</svg>
